<?xml version="1.0" encoding="utf-8"?>
<!-- Generator: Adobe Illustrator 28.3.0, SVG Export Plug-In . SVG Version: 6.00 Build 0)  -->
<svg version="1.1" id="Layer_1" xmlns="http://www.w3.org/2000/svg" xmlns:xlink="http://www.w3.org/1999/xlink" x="0px" y="0px"
	 viewBox="0 0 580.5 144.5" style="enable-background:new 0 0 580.5 144.5;" xml:space="preserve">
<style type="text/css">
	.st0{fill:none;}
	.st1{fill:#F6CDDA;}
	.st2{fill:#F7D7D8;}
	.st3{fill:#F6C9C3;}
	.st4{fill:#F9DFE2;}
	.st5{fill:#F6D2C5;}
	.st6{fill:#F0A38F;}
	.st7{fill:#C16D4E;}
	.st8{fill:#C1767A;}
	.st9{fill:#F2AC8F;}
	.st10{fill:#F4BEA9;}
	.st11{fill:#BF7C8D;}
	.st12{fill:#C2725F;}
	.st13{fill:#F5C9B8;}
	.st14{fill:#F2AB84;}
	.st15{fill:#F1A863;}
	.st16{fill:#F4C3B2;}
	.st17{fill:#F2B49C;}
	.st18{fill:#F6CEB7;}
	.st19{fill:#EE8A8A;}
	.st20{fill:#EF9394;}
	.st21{fill:#F4C0AE;}
	.st22{fill:#EC96AB;}
	.st23{fill:#71515F;}
	.st24{fill:#C07380;}
	.st25{fill:#BF727C;}
	.st26{fill:#C06E78;}
	.st27{fill:#DF95AA;}
	.st28{fill:#704C59;}
	.st29{fill:#5D4C58;}
	.st30{fill:#564E54;}
	.st31{fill:#6C4956;}
	.st32{fill:#53302F;}
	.st33{fill:#62434D;}
	.st34{fill:#6E4753;}
	.st35{fill:#F7D8F0;}
	.st36{fill:#F7D8F5;}
	.st37{fill:#F6D3E2;}
	.st38{fill:#F7D7E8;}
	.st39{fill:#F09E6C;}
	.st40{fill:#7C4932;}
	.st41{fill:#4E98D6;}
	.st42{fill:#12274B;}
	.st43{fill:#F0AA3D;}
	.st44{fill:#3A78C9;}
	.st45{fill:#507EAD;}
	.st46{fill:#192D4F;}
	.st47{fill:#174B90;}
	.st48{fill:#FFFFFF;}
</style>
<g id="Layer_2_00000156566140749611341320000011504019305138169220_">
	<g>
		<path class="st0" d="M110.1,66.8c0.1,0.1,0.2,0.1,0.3,0.1c-0.1-0.1-0.2-0.3-0.3-0.4C110,66.6,110,66.7,110.1,66.8z"/>
		<path class="st0" d="M105.8,75.9c-0.1,0-0.2,0-0.3,0C105.6,76,105.7,76,105.8,75.9z"/>
		<path class="st0" d="M102.9,57.2L102.9,57.2L102.9,57.2z"/>
		<path d="M47.2,53.7c-0.2,0.6-0.4,1.2-0.6,1.9c-0.1,0.7-0.1,1.5-0.2,2.2c0.1-0.1,0.2-0.2,0.3-0.3C47.4,56.3,47.4,55.1,47.2,53.7z"
			/>
		<path d="M92.6,122.2c3.7-2.5,7.5-4.9,11.2-7.4c2-2.8,4.4-6.7,6.2-11.9c1.9-5.3,2.6-10.1,2.8-13.5c-0.1-4.2-0.1-8.4-0.2-12.6
			c-0.1,0-0.1-0.2-0.2-0.3c-0.2,0-0.3-0.1-0.3-0.3c-0.2,0.1,0,0.4-0.2,0.5c-0.3-0.3-0.5,0-0.7,0.1s-0.5,0.1-0.6-0.3
			c0-0.1-0.3-0.1-0.3-0.1c-0.2,0.5-0.6,0.1-0.8,0.2c-0.3,0.1-0.3,0.1-0.6,0.5c-0.2-0.3-0.4-0.5-0.6,0c-0.1-0.2-0.1-0.4-0.2-0.5
			c-0.4,0.3-0.6,0.1-0.9-0.2c0,0.2-0.1,0.3-0.3,0.3c-0.2-0.1-0.2,0-0.2,0.1s-0.1,0.2-0.2,0.2s-0.3-0.1-0.3-0.2
			c0-0.3-0.3-0.4-0.4-0.3c-0.6,0.2-0.7-0.4-0.9-0.7c-0.1-0.2-0.2-0.2-0.3,0c-0.1,0.2-0.2,0.4-0.4,0.5c-0.2-0.1-0.2-0.5-0.4-0.4
			c-0.2,0.1-0.3,0.4-0.3,0.6s0,0.3-0.1,0.6c-0.1-0.3-0.2-0.6-0.3-0.8c0-0.1,0-0.2-0.1-0.2s-0.2,0-0.2,0.2s-0.1,0.3-0.2,0.4
			c-0.1,0.2-0.1,0.5-0.4,0.1c-0.1-0.1-0.1,0.1-0.2,0.2c-0.1-0.2-0.2-0.3-0.3-0.6c0,0.2-0.1,0.3-0.1,0.4c0-0.4-0.6-0.6-0.6-1
			c0,0.2,0,0.4,0,0.5c0,0.2-0.3,0.3-0.3,0.3c-0.3-0.1-0.2-0.4-0.3-0.6c-0.1,0.3-0.3,0.5-0.3,0.8c-0.4-0.1-0.1-0.5-0.3-0.6
			c-0.1,0,0,0.3-0.1,0.1c-0.2-0.3-0.5-0.4-0.8-0.6c-0.1-0.1-0.2-0.2-0.2,0c0,0.1-0.1,0.2-0.2,0.1c-0.2-0.1-0.2-0.1-0.3,0.1
			c-0.1,0.1-0.2,0.2-0.3,0.2c-0.3-0.1-0.4,0-0.4,0.3s-0.3,0-0.4,0.2l0,0c0,0.1,0,0.3-0.1,0.1c-0.1-0.2,0-0.4,0-0.7
			c0-0.1-0.1-0.1-0.1-0.2c0,0.1-0.1,0.3-0.2,0.4c-0.2-0.1-0.1-0.3-0.2-0.4c0,0.1,0,0.2-0.1,0.2s-0.2-0.1-0.2-0.2
			c-0.1,0-0.1,0.1-0.2,0.1c0,0.3,0.1,0.6-0.4,0.6c-0.2,0-0.2-0.1-0.2-0.2c-0.1-0.3-0.1-0.6-0.2-0.9c0,0.1,0,0.3,0,0.4l0,0l0,0
			c0.1,0.2-0.2,0.3-0.2,0.5s0,0.4,0,0.6c-0.2-0.3-0.1-0.7-0.3-0.9l0,0c0.1,0.6-0.3,0.7-0.8,0.6l0,0c-0.1,0-0.1,0-0.2,0.1
			c-0.2,0.4-0.3,0.4-0.5,0c0-0.1-0.1-0.2-0.2-0.1c-0.3,0.3-0.5-0.1-0.7-0.1s-0.4,0.1-0.4,0.5c-0.3-0.5-0.7-0.6-1.1-0.7
			c0,0.2,0,0.4-0.1,0.7c-0.2-0.3-0.2-0.6-0.2-0.9c-0.1-0.1-0.1-0.1-0.2-0.2c-0.1,0.2,0,0.5-0.2,0.9c-0.3-0.2-0.4-0.9-0.7-0.8
			c-0.4,0.1-0.5,0.3-0.6,0.7c-0.1-0.1,0-0.3-0.4-0.2c-0.4,0.1-0.5,0.4-0.8,0.5c-0.2,0.1-0.5,0-0.6-0.3s-0.1-0.6-0.1-0.9l0,0
			c-0.1-0.8,0-1.7-0.1-2.6l0,0c0-0.2,0-0.4,0-0.6c-0.2-0.6-0.2-1.3-0.2-1.9c0-1.5-0.3-2.9-0.8-4.3c-0.1-0.2-0.1-0.3-0.1-0.5l0,0l0,0
			c-0.3-0.7-0.3-1.4-0.3-2.1c0-0.4,0-0.9-0.2-1.3c-0.1-0.2,0-0.3,0.2-0.3c1.1-0.1,2.1-0.5,2.8-1.4c0.1-0.1,0.2-0.1,0.3-0.1
			c0.9,0.3,1.8,0.3,2.7,0.2c0.8-0.1,1.5,0.1,2.2,0.6c0.5,0.4,0.9,0.7,1.4,1c0.1,0.1,0.3,0.2,0.4,0.1c0.1-0.1,0-0.3,0-0.4
			c-0.2-0.5-0.5-0.9-1-1.2s-0.7-0.8-0.7-1.4c0-0.3-0.1-0.6-0.2-0.9c0.4,0.2,0.9,0.2,1.2,0.5c0.1,0.1,0.4,0.2,0.6,0.2
			c0.5-0.1,0.8,0.2,1.2,0.4c0.9,0.6,1.9,0.9,2.9,1.4c0.5,0.1,0.9,0.3,1.4,0.4c0.3,0.1,0.6-0.1,0.8-0.3c0.2-0.1,0-0.2-0.1-0.3
			c-0.4-0.2-0.8-0.4-1.3-0.6c-0.7-0.4-1.5-0.7-2.2-1.2c-0.1-0.1-0.2-0.1-0.3-0.2c1.5-0.4,2.8-1,3.9-1.9c0.7-0.8,1.4-1.7,1.8-2.7l0,0
			l0,0c0.1-0.3,0.1-0.6,0.2-1c0-1,0-2,0.1-3c0-0.2,0-0.4,0.1-0.5c0,0,0,0,0-0.1c0-0.2,0-0.4,0.1-0.5c0-0.5,0.3-0.7,0.7-0.8l0,0l0,0
			c0.3-0.1,0.6-0.3,0.4-0.7l-0.1-0.1c-0.2-0.1-0.1-0.5-0.5-0.4c-0.5,0.1-0.9,0.2-1.3,0.6c-0.2,0.3-0.4,0.5-0.6,0.8l0,0l0,0l0,0
			c-0.2,0.4-0.4,0.8-0.4,1.2l0,0c-0.2,1,0,2-0.3,2.9c-0.2,0.8-0.5,1.6-1.3,2.1c-0.1,0.1-0.3,0.2-0.5,0.2c-1.4,0.2-2.8,0.2-4-0.9
			c-0.4-0.3-0.7-0.7-1-1.1c-0.9-1.1-2.1-2-3.4-2.5c-0.3-0.1-0.6-0.2-0.8-0.4c-0.8-0.6-1.6-0.8-2.6-0.7c-0.2,0.1-0.4,0.2-0.7,0.1
			c0.2-0.2,0.3-0.4,0.5-0.6l0,0l0,0c0.1-0.2,0-0.4,0-0.6c-0.4-0.7-1.1-0.5-1.6-0.4c-0.6,0.2-0.8-0.1-1.1-0.5
			c-0.2-0.3-0.4-0.7-0.5-1.1c-0.3-0.6-0.2-1.3-0.7-1.8c-0.2-0.2,0.2-0.3,0.4-0.4c0.1-0.1,0.4,0.1,0.5-0.1c0.1-0.3,0.2-0.7,0.1-1
			c-0.1-0.4-0.3-0.7-0.1-1.1c0-0.1-0.1-0.3-0.2-0.4c-0.1-0.1-0.3-0.1-0.4-0.2c-0.6-0.2-1.1-0.1-1.4,0.2c-0.3,0.4-0.4,1.1-0.1,1.5
			c0.2,0.3,0.1,0.4-0.1,0.6c-0.3,0.3-0.6,0.6-0.9,0.8c-0.2,0.3-0.4,0.7-0.6,1l0,0c-0.5,1.2-0.6,2.4-0.7,3.7c0,0.4,0.2,0.8,0.3,1.2
			c-0.8,0-1.6-0.1-2.4-0.2c-1.8-0.1-3.6-0.3-5.4-0.3c-1.2,0-2.4,0.2-3.5,0.7c-0.8,0.4-1.7,0.7-2.6,1c-0.6,0.2-1.1,0.5-1.7,0.8
			c-1,0.7-2.1,1.4-2.9,2.3c-0.6,0.6-1.2,1.1-1.6,1.9c0,0.2-0.2,0.3-0.3,0.4c-1.4,0.8-2.1,2.1-2.6,3.7c0,0.1-0.1,0.2-0.1,0.3
			c-0.3,1.7-0.4,3.5-0.4,5.3c0,0.7-0.3,1.3-0.6,1.9c0,0.1-0.1,0.2-0.2,0.3c-0.6,0.2-1.2,0.4-1.6,0.9c-0.2,0.2-0.6,0.1-0.9,0
			c-0.3-0.2-0.5-0.4-0.8-0.6c-0.4-0.3-0.8-0.6-1.3-0.7c-0.4-0.1-0.8-0.3-1-0.6c-0.5-0.7-1.1-1.2-1.8-1.6c-0.3-0.2-0.7-0.3-1-0.2
			c-0.8,0.2-1.6,0.3-2.4,0.3c-0.3,8.9,0,18.3,1.2,28.1c0.3,2.2,0.5,4.3,0.9,6.4c2.4,4.6,4.7,9.2,7.1,13.7c2.5,2.1,6.2,4.9,11.3,7
			c4.8,2.1,9.3,2.9,12.8,3.3c1.3,0,2.5,0,3.8,0C86.1,124.2,89.3,123.2,92.6,122.2z M46.3,77.3c-0.2-0.5-0.5-1.1,0-1.7
			C46.5,76.2,46.4,76.8,46.3,77.3z M62.1,74.4L62.1,74.4L62.1,74.4c0,0.2,0,0.3,0,0.5c-0.1,0.5-0.3,1-0.4,1.6c0,0.1-0.3,0.3-0.6,0.3
			c-0.1,0-0.3-0.1-0.4,0.1c-0.1,0.1-0.1,0-0.2-0.1c0-0.1-0.1-0.3-0.1-0.4c-0.1-0.2-0.1-0.3-0.3-0.3s-0.3,0.1-0.3,0.3
			c0,0.3-0.1,0.6-0.5,0.3c-0.2-0.2-0.3,0.1-0.4,0.2c-0.4,0.1-0.8,0.1-1.1,0c-0.5-0.1-1,0-1.5,0c-0.1,0-0.2,0-0.2-0.1
			c0-0.3-0.4-0.4-0.4-0.7c-0.2,0.5-0.2,0.5-0.8,0c0.1,0.4-0.4,0.4-0.3,0.8c-0.1-0.4-0.5-0.5-0.9-0.2c-0.1-0.1,0-0.3-0.1-0.4
			c-0.2,0.2,0,1.1-0.7,0.4c-0.1,0.3-0.2,0.5-0.3,0.8c0-0.5-0.8-0.5-0.5-1.1c-0.1,0.5-0.4,0.4-0.5,0.2c-0.2-0.3-0.3-0.2-0.3,0.1
			c0,0.2-0.1,0.4-0.3,0.6c0-0.6-0.5-0.9-0.4-1.5c-0.2,0.4-0.2,0.9-0.4,1.4c-0.2,0.2,0-0.8-0.4-0.1c-0.1-0.3-0.1-0.7-0.2-1
			c-0.2,0.3-0.2,0.7-0.7,0.7c-0.3,0-0.4-0.2-0.3-0.5c-0.2,0.1-0.3,0.3-0.4,0.5c0,0.1,0,0.2-0.2,0.2c-0.1,0-0.1-0.1-0.1-0.2
			c0-0.3,0-0.6,0.1-0.9c0.1-0.5,0.2-1,0.2-1.5c-0.1-0.5-0.3-1-0.3-1.5c-0.1-0.3-0.2-0.5-0.3-0.8c-0.1-0.4,0.2-0.3,0.4-0.4
			c0.3-0.1,0.3-0.6,0.8-0.5c0.3,0,0.6,0,0.9-0.1c0.5,0,0.7,0.3,0.9,0.6c0.2,0.1,0.3,0.3,0.5,0.3c0-0.3-0.1-0.6-0.4-0.8
			c-0.2-0.1-0.2-0.3-0.2-0.5s0.1-0.3,0.3-0.2c0.7,0.3,1.2-0.2,1.8-0.2c0.4,0,0.6,0,0.9,0.3c0.7,0.6,1.3,0.7,2.1,0.1
			c0.3-0.2,0.5-0.3,0.8-0.2c0.9,0.2,1.3-0.1,1.4-1c0-0.4,0.3-0.8,0.5-1.2c0.4-1.3,0.3-2.6,0.6-3.9c0-0.2,0.1-0.4,0.1-0.6
			c0-0.8,0.1-1.6,1-1.8c0.1,0.1,0.1,0.3,0.1,0.5c0.1,1.5,0.4,3,1.2,4.3c0.3,0.5,0.4,1.1,0.4,1.7c0,0.8,0.1,1.6,0.3,2.5
			C62.2,72.1,62.2,73.3,62.1,74.4z M66.4,77.1c-0.1,0.2-0.2,0.2-0.4,0.1c-0.5-0.3-0.4-0.9-0.5-1.4c-0.1-0.7-0.3-1.4-0.2-2.1
			c0-0.4,0.1-0.8,0.3-1.2c0.3,0.3,0.4,0.7,0.4,1.1c-0.1,0.8,0.1,1.5,0.4,2.2l0,0C66.7,76.2,66.6,76.6,66.4,77.1z M79.2,72.2
			c-0.3,1-0.2,2.1-0.2,3.2c0,0.3,0.1,0.7-0.4,0.8c0,0,0,0.2-0.1,0.2c0-0.2-0.2-0.3-0.3-0.5c-0.1,0.2-0.1,0.5-0.3,0.7
			c-0.4,0.4-0.7,0.4-1-0.2c0.1,0.7-0.2,1.2-0.9,1.3c-0.1-0.2,0-0.4-0.2-0.6s-0.6,0-0.6-0.4c0,0-0.1,0-0.1-0.1c0,0.1,0.1,0.5-0.3,0.3
			c-0.2-0.1-0.1,0.2-0.2,0.2c-0.1-0.2-0.1-0.3-0.2-0.5c-0.2,0,0,0.2-0.2,0.2c-0.1-0.2-0.1-0.4-0.2-0.5c-0.3,0.1-0.3,0.4-0.4,0.6
			c0-0.3-0.1-0.5-0.1-0.7c-0.2,0.1-0.1,0.3-0.2,0.4c-0.2-0.1-0.2-0.3-0.3-0.4c-0.4,0.3-0.4,0.3-0.8-0.4c0,0.2,0,0.3-0.2,0.4
			s-0.2,0.3-0.3,0.5c-0.1-0.2-0.1-0.5-0.4-0.6c-0.1,0.4-0.1,0.7-0.2,1.1c-0.1,0-0.1,0-0.1,0c-0.1-0.7-0.9-1.1-0.9-1.9
			c-0.4-1.4-1.4-2.6-1.3-4.1c0-0.5,0.1-1,0.4-1.5c0.2-0.6,0.8-0.7,1.4-0.7c0.4,0,0.8,0,1.1,0c1.1,0.1,2.2-0.1,3.3-0.5
			c1-0.3,2-0.4,2.9-0.9c0.2-0.1,0.2,0,0.3,0.1c0.5,1,1,2,0.9,3.2C79.3,71.2,79.3,71.8,79.2,72.2z M81.8,77.4c-0.2-0.4-0.1-0.7,0-1
			c0.6-1,0.7-2.1,0.8-3.2c0-0.4,0.1-0.8,0.2-1.3c0.3,0.5,0.5,1,0.6,1.5c0.2,0.9,0.4,1.8,0.8,2.6c0,0.1,0.1,0.2,0.1,0.3
			c0,0.2,0,0.4-0.2,0.4c-0.3,0.1-0.3-0.2-0.3-0.3c0-0.1,0-0.1,0-0.3c-0.1,0.2-0.1,0.4-0.2,0.6c-0.3-0.5-0.6,0.2-0.9-0.2
			C82.4,77,81.9,76.9,81.8,77.4z"/>
		<path d="M108.3,76.7L108.3,76.7L108.3,76.7z"/>
		<path class="st1" d="M51.2,46.7c0.5,0,1,0.1,1.6,0.2c0.8,0.2,1.7,0.3,2.5,0.1c0.3-0.1,0.3-0.2,0.3-0.4c0-0.7,0.2-0.8,0.9-0.8
			c1,0,2,0,3,0c0.4,0,0.8,0,1.2,0.3c0.1,0.1,0.3,0.1,0.5,0.1c1.4,0,2.8,0,4.2,0c0.5,0,1,0.2,1.4,0.5c0.5,0.3,1,0.2,1.3-0.3
			c0.1-0.3,0.4-0.4,0.6-0.3c0.6,0.1,1.1,0.1,1.7,0.1c0.4,0,0.7,0.1,1.1,0.1c0.9,0,1.9,0,2.8-0.2c0.4-0.1,0.8-0.4,1.3-0.4
			c0.1,0,0.3,0,0.4,0.1c0.4,0.4,0.9,0.3,1.4,0.4c0.1,0,0.2,0,0.3-0.1c0.2-0.5,0.7-0.4,1-0.3c0.7,0.1,1.5,0.2,2.2-0.1
			c0.2-0.1,0.6,0,0.7,0.2c0.2,0.2-0.2,0.4-0.3,0.6c0.1,0.1,0.2,0,0.3,0l0,0l0,0c0.2-0.3,0.4-0.7,0.6-1c-0.1-0.1,0-0.2,0-0.3
			c0.1-0.3,0.1-0.6-0.4-0.6c-0.2,0-0.3-0.1-0.5-0.2c-0.1-0.1-0.2-0.2-0.3,0c-0.1,0.1,0,0.2,0,0.3c0,0.2,0.3,0.3,0.1,0.4
			c-0.1,0.2-0.3,0.1-0.5,0c-0.1,0-0.3-0.1-0.4,0c-0.7,0.4-1.4,0.2-2.1,0.2c-0.3,0-0.4-0.2-0.4-0.5s-0.2-0.4-0.5-0.4
			c-1.4,0-2.7-0.1-4.1,0c-1.1,0.1-2.2,0-3.3,0.1c-0.3,0-0.6,0-0.9-0.2l0,0c-0.4-0.3-0.7-0.3-0.9,0c-0.2,0.2-1.1,0.2-1.4-0.1
			c-0.3-0.2-0.5-0.2-0.7-0.1c-0.3,0.2-0.5,0.2-0.8,0C65,44,64.8,43.9,64.7,44c-0.7,0-1.3-0.1-2-0.1c-0.3,0-0.6,0.1-0.9,0.3
			c-0.4,0.2-0.9,0.2-1.3,0C60.2,44,60,43.9,59.7,44c-0.1,0-0.1,0-0.2,0c-1.5,0-3,0.1-4.5,0.1c-1,0-1.9,0.1-2.8,0.4
			c-0.2,0.1-0.4,0.1-0.5,0.1c-0.5,0-0.9,0-1.4,0c-0.2,0.3-0.4,0.7-0.5,1c-0.1,0.4-0.2,0.8-0.4,1.2C50,46.8,50.6,46.7,51.2,46.7z"/>
		<path class="st2" d="M103.4,41.2c-0.4,0-0.7,0.1-0.8,0.5c0,0.1,0,0.1-0.1,0.2c-0.3,0.2-1.6-0.1-1.7-0.4c-0.1-0.4-0.4-0.3-0.6-0.3
			s-0.5,0-0.5,0.3v0.1c-0.3,0.8-0.1,0.9-1.1,0.6c-0.6-0.2-1.2-0.1-1.8-0.1c-0.2,0-0.3,0.2-0.3,0.3c0,0.2-0.2,0.3-0.3,0.3
			c-1.7-0.1-3.4,0.4-5.1,0.2c-1.8-0.2-3.5-0.2-5.3-0.2c-0.1,0-0.3,0-0.3-0.1c-0.1-0.4-0.4-0.2-0.6-0.2c0.1,0.1,0.2,0.3,0.2,0.4
			c-0.2,0.4,0,0.7,0.1,1.1c0.1,0.3,0,0.7-0.1,1c-0.1,0.2-0.3,0-0.5,0.1c-0.1,0.1-0.6,0.2-0.4,0.4c0.5,0.5,0.5,1.2,0.7,1.8
			c0.2-0.5,0.5-0.6,0.9-0.2c0.1,0.1,0.2,0,0.3,0c0.3,0,0.7,0,1,0c1.9,0.1,3.7-0.2,5.6-0.3c0.3,0,0.6,0,0.8,0c0.2,0,0.5,0,0.7-0.2
			c0.1-0.1,0.2-0.1,0.4-0.1c0.8,0.2,1.6,0.1,2.4,0c0.4,0,0.8,0.2,1.2,0.2c0.8,0,1.7-0.1,2.5-0.1h0.1c0.8-0.7,1.8-0.4,2.7-0.6
			c0.5-0.1,1.1,0,1.7,0c0.2,0,0.5,0,0.7,0.2s0.5,0.1,0.6-0.1c0.2-0.5,0.7-0.4,1-0.5c0.8,0,1.7-0.2,2.5,0c0.7,0.2,1.5,0.2,2.2,0.3
			c0.3,0,0.7,0,1,0c-1.9-1.6-3.9-3.2-5.8-4.8c-0.4,0.3-0.9,0.5-1.4,0.5C105.2,41.3,104.3,41.2,103.4,41.2z"/>
		<path class="st3" d="M102.6,49.1L102.6,49.1L102.6,49.1L102.6,49.1z"/>
		<path class="st3" d="M112.3,45.5c-0.7-0.1-1.5-0.1-2.2-0.3c-0.8-0.2-1.7-0.1-2.5,0c-0.4,0-0.8,0-1,0.5c-0.1,0.2-0.4,0.3-0.6,0.1
			s-0.4-0.2-0.7-0.2c-0.6,0-1.2-0.1-1.7,0c-0.9,0.2-1.9-0.1-2.7,0.6h-0.1c-0.8,0-1.7,0.1-2.5,0.1c-0.4,0-0.8-0.2-1.2-0.2
			c-0.8,0.1-1.6,0.2-2.4,0c-0.1,0-0.3,0-0.4,0.1c-0.2,0.2-0.4,0.2-0.7,0.2c-0.3,0-0.6,0-0.8,0c-1.9,0.1-3.7,0.4-5.6,0.3
			c-0.3,0-0.7,0-1,0c-0.1,0-0.3,0-0.3,0c-0.4-0.4-0.7-0.2-0.9,0.2c0.1,0.4,0.3,0.7,0.5,1.1c0.3,0.4,0.5,0.7,1.1,0.5
			c0.5-0.1,1.2-0.3,1.6,0.4h0.1c0.2-0.1,0.1-0.5,0.4-0.4c0.5,0.1,1-0.1,1.5,0.3c-0.4,0.3-0.8,0.1-1.2,0.3c-0.1,0-0.3,0-0.3,0.1
			c-0.1,0.3-0.3,0.3-0.6,0.3l0,0c-0.1,0.2-0.3,0.4-0.5,0.6c0.3,0.1,0.5,0,0.7-0.1c0.1-0.1,0.2-0.1,0.3-0.1c0.1,0,0.4,0.1,0.2-0.2
			c-0.1-0.2,0.2-0.2,0.3-0.2c0.8-0.1,1.4-0.4,2.2-0.6c0.6-0.2,1.1-0.2,1.6-0.1c0.4,0,0.8,0.1,1.2,0.1c0.3,0,0.6,0,0.9,0.2
			c0.5,0.2,1,0.2,1.5,0.1c0.8-0.1,1.4,0.2,2.1,0.4c0.8,0.1,1.6,0,2.3-0.2c0.7-0.2,1.1,0.1,1,0.9c0,0.1-0.2,0.4,0.1,0.4l0,0l0,0
			c0.1-0.4,0.3-0.8,0.4-1.2l0,0c-0.1-0.1-0.3,0-0.3-0.3c0-0.1,0.1-0.1,0.2-0.1c0.2,0,0.1,0.2,0.2,0.4l0,0l0,0
			c0.2-0.3,0.4-0.5,0.6-0.8c0.3-0.4,0.8-0.5,1.3-0.6c0.4-0.1,0.3,0.3,0.5,0.4c0,0,0.1,0,0.1,0.1c0.2,0.5,0.1,0.6-0.4,0.7l0,0
			c-0.4,0.1-0.7,0.3-0.7,0.8c0,0.2,0.1,0.4,0.3,0.5c0.2,0,0.1-0.1,0.1-0.2c-0.2-0.2-0.2-0.4-0.1-0.6c0.2-0.2,0.4-0.2,0.6-0.1
			c0.4,0.2,0.8,0.4,1.3,0.3c1.2-0.4,2.4-0.1,3.6-0.2c0.2,0,0.4-0.1,0.5,0.2c0.2,0.5,0.6,0.5,0.9,0.3c0.3-0.1,0.6-0.1,0.9-0.1
			c0.4,0,0.7,0,0.9-0.4c0.1-0.2,0.3-0.2,0.5-0.1c0.4,0.2,0.8,0.1,1.2,0.1c0.1,0,0.3,0,0.4-0.1c0.2-0.5,0.6-0.4,1-0.4
			c0.1,0,0.1,0,0.2,0c0.1-0.3,0.2-0.6,0.3-0.9c-1.1-0.9-2.2-1.8-3.3-2.7C113,45.5,112.7,45.6,112.3,45.5z"/>
		<path class="st4" d="M60.5,42.8c0.2,0,0.4,0.1,0.6,0.3c0.3,0.3,0.6,0.3,0.9,0c0.1-0.2,0.3-0.2,0.5-0.2c1.2,0,2.4,0,3.5,0
			c0.2,0,0.4,0,0.4,0.2s-0.2,0.1-0.4,0.1c-0.6,0-1.2,0-1.9,0c-0.1,0-0.3,0-0.4,0c-0.1,0-0.2,0.1-0.2,0.2c0,0.1,0.1,0.2,0.2,0.2
			c1,0,2,0.1,2.9,0s1.8,0.1,2.7,0.1c0.2,0,0.3,0.1,0.3,0.3s-0.2,0.1-0.3,0.2c-0.2,0.1-0.4,0.1-0.6,0.2c0.3,0.2,0.6,0.2,0.9,0.2
			c1.1,0,2.2,0,3.3-0.1c1.4-0.1,2.7,0,4.1,0c0.3,0,0.5,0.1,0.5,0.4c0,0.3,0.1,0.5,0.4,0.5c0.7-0.1,1.5,0.2,2.1-0.2
			c0.1-0.1,0.2-0.1,0.4,0c0.2,0.1,0.4,0.1,0.5,0c0.1-0.2-0.1-0.3-0.1-0.4c0-0.1-0.1-0.2,0-0.3s0.2,0,0.3,0c0.1,0.1,0.3,0.2,0.5,0.2
			c0.4,0,0.5,0.2,0.4,0.6c0,0.1-0.1,0.2,0,0.3c0.3-0.3,0.6-0.6,0.9-0.8c0.2-0.2,0.3-0.3,0.1-0.6c-0.3-0.4-0.2-1.2,0.1-1.5
			c0.3-0.4,0.8-0.4,1.4-0.2c0.1,0.1,0.3,0.1,0.4,0.2c0.2,0,0.5-0.2,0.6,0.2c0,0.1,0.2,0.1,0.3,0.1c1.8,0,3.5,0,5.3,0.2
			c1.7,0.2,3.4-0.2,5.1-0.2c0.2,0,0.3,0,0.3-0.3c0-0.2,0.1-0.3,0.3-0.3c0.6,0,1.2-0.1,1.8,0.1c1,0.3,0.8,0.2,1.1-0.6v-0.1
			c0-0.4,0.3-0.3,0.5-0.3c0.3,0,0.6-0.1,0.6,0.3c0.1,0.4,1.4,0.7,1.7,0.4c0,0,0.1-0.1,0.1-0.2c0.1-0.5,0.4-0.5,0.8-0.5
			c0.9,0.1,1.8,0.2,2.6,0.1c0.5-0.1,1-0.2,1.4-0.5c-1.4-1.1-2.7-2.2-4.1-3.4c-1.1-0.9-2.2-1.7-3.3-2.6c-1,0-1.9,0-2.9,0
			c-0.3,0-0.6,0.1-0.6,0.5c0,0.3-0.2,0.4-0.5,0.5c-0.8,0.4-1.6,0.2-2.4,0.3c-0.5,0.1-0.9,0.3-1.4,0.3c-2.9-0.4-5.8-0.3-8.7-0.3
			c-0.2,0-0.4-0.1-0.5-0.3s0.1-0.3,0.3-0.4c0.2-0.1,0.2-0.2,0.2-0.3c0-0.2-0.2-0.3-0.4-0.2H83c-4.6,0-9.2-0.2-13.8-0.1
			c-0.3,0-0.7,0-1,0C68,35.2,68,35.3,68,35.5c0.2,1,0.1,1.1-0.9,1.1c-0.5,0-0.9,0-1,0.6C66,37.6,65.5,38,65,38c-1.9,0-3.8,0-5.7,0
			c-0.1,0-0.3,0-0.4,0c-1,0.5-2,0.2-3,0.3c-0.3,0-0.5-0.1-0.5-0.3c-1.7,1.8-3,3.5-4,5.1c0.5,0,1,0,1.5,0
			C55.5,42.7,58,42.9,60.5,42.8z"/>
		<path class="st5" d="M49.3,51.8c0.1,0.1,0.2,0.1,0.3,0.1c0.6-0.2,1.2,0,1.7,0.3c0.4,0.3,0.7,0.5,1.2,0.6c0.2,0,0.4,0.1,0.5,0.1
			c1-0.2,1.9-0.1,2.9,0.1H56c1.2-0.3,2.3,0.1,3.5,0.1c0.6,0,1.2,0,1.8,0.1c0.7,0.1,1.4-0.2,2.1-0.2c0.3,0,0.6,0,0.9-0.1
			c0.3,0,0.6,0,0.8-0.3c0.2-0.2,0.3-0.1,0.4,0.2c0,0.1-0.2,0.3,0.1,0.4c0.5-0.3,1.1-0.7,1.7-0.8c0.9-0.3,1.8-0.6,2.6-1
			c1.1-0.5,2.3-0.7,3.5-0.7c1.8,0,3.6,0.2,5.4,0.3c0.8,0.1,1.5,0.2,2.4,0.2c-0.1-0.4-0.4-0.8-0.3-1.2c0.1-1.3,0.2-2.5,0.7-3.7l0,0
			c-0.1,0-0.2,0.1-0.3,0c0.1-0.2,0.4-0.4,0.3-0.6c-0.1-0.2-0.4-0.3-0.7-0.2c-0.7,0.3-1.4,0.2-2.2,0.1c-0.4,0-0.8-0.2-1,0.3
			c-0.1,0.1-0.2,0.2-0.3,0.1c-0.5,0-1,0-1.4-0.4c-0.1-0.1-0.3-0.1-0.4-0.1c-0.5-0.1-0.9,0.3-1.3,0.4c-0.9,0.2-1.9,0.2-2.8,0.2
			c-0.4,0-0.7-0.1-1.1-0.1c-0.6,0-1.1,0.1-1.7-0.1c-0.2-0.1-0.5,0-0.6,0.3c-0.2,0.5-0.8,0.6-1.3,0.3c-0.4-0.3-0.9-0.5-1.4-0.5
			c-1.4,0-2.8,0-4.2,0c-0.2,0-0.3,0-0.5-0.1c-0.4-0.3-0.8-0.3-1.2-0.3c-1,0-2,0-3,0c-0.7,0-0.8,0.2-0.9,0.8c0,0.2,0,0.4-0.3,0.4
			c-0.8,0.2-1.7,0.1-2.5-0.1c-0.5-0.1-1-0.2-1.6-0.2s-1.2,0-1.8,0c-0.5,1.7-1,3.3-1.6,5c0.2,0,0.4,0,0.6,0
			C48.7,51.7,49,51.7,49.3,51.8z"/>
		<path class="st6" d="M49.4,66.5c0.7,0.4,1.4,0.9,1.8,1.6c0.2,0.4,0.6,0.6,1,0.6c0.5,0.1,0.9,0.4,1.3,0.7c0.3,0.2,0.5,0.4,0.8,0.6
			s0.6,0.3,0.9,0c0.5-0.5,1-0.7,1.6-0.9c0.1,0,0.2-0.2,0.2-0.3c0.3-0.6,0.6-1.2,0.6-1.9c0-1.8,0.1-3.5,0.4-5.3
			c-0.1-0.1-0.1-0.3-0.2-0.4c-0.1-0.1-0.3-0.2-0.4-0.1c-0.2,0.5-0.5,0.2-0.7,0.2c-1.4-0.1-2.8-0.1-4.1,0c-1,0.1-2,0.2-2.9,0.1
			c-1.2-0.2-2.3-0.2-3.5-0.2c-0.1,1.7-0.2,3.5-0.2,5.3c0.8,0,1.6-0.1,2.4-0.3C48.7,66.2,49.1,66.3,49.4,66.5z"/>
		<path class="st7" d="M87.9,73.2c0.2,0.5,0.6,0.7,1,0.8c0.8,0.2,1.5,0.6,2.3,0.5c0.3,0,0.5,0.2,0.7,0.4c0.3,0.3,0.6,0.7,1.1,0.7
			c0.4,0,0.8,0.1,1.2-0.1c0.3-0.1,0.5-0.1,0.3-0.5c-0.3-0.8,0.3-1.7,1.2-1.6c0.8,0,1.6-0.1,2.4-0.1c0.1,0,0.2,0,0.3-0.1
			c0.5-0.4,1-0.4,1.6-0.4c0.8,0,1.5-0.3,2.2-0.8c0.2-0.1,0.3-0.2,0.5-0.2c1.1,0,2.1-0.3,3.1-0.6c0.3-0.1,0.6-0.1,0.9-0.1
			c0.6,0,0.7-0.1,0.4-0.7c-0.1-0.1-0.2-0.3,0.1-0.3c0-0.4-0.1-0.7-0.4-1c-0.1-0.1-0.2-0.2-0.2-0.4c0.1-0.8-0.2-1.4-0.8-1.9
			c0.6-0.2,0.6-0.1,1,0.3s0.4,0.8,0.3,1.3s0.1,1,0.4,1.4c0.2,0.1,0.4,0.3,0.5,0.5c0.1,0.1,0.1,0.2,0.3,0.2c0.2,0,0.3-0.1,0.3-0.3
			l0,0c-0.1-0.9,0.6-1,1.3-1.1c0.4-0.1,0.4-0.4,0.4-0.7c0-0.3,0-0.5-0.4-0.5c-0.1,0-0.3-0.1-0.3-0.3c0-0.2,0.2-0.1,0.3-0.1
			c0.2,0,0.3,0,0.4-0.1c0.2-0.2,0.2-0.3,0-0.4c0,0-0.1-0.1-0.2-0.2c-0.1,0-0.2-0.1-0.3-0.1c-0.1-0.1,0-0.2,0-0.3
			c-0.1-0.1-0.1-0.2-0.1-0.2l0,0l0,0c-1.2,0.2-2.5,0.5-3.8,0.4c-0.5,0-1-0.1-1.4-0.3c-0.7-0.3-1.4-0.5-2.1-0.8
			c-1.2-0.4-2.3-1-3.5-1.2c-1.3-0.2-2.5,0-3.4,1c-0.8,0.8-1.8,1-2.8,1.2c-2.1,0.2-4.1,0.1-6.2-0.3c-0.2,0-0.5,0-0.7-0.1l0,0
			c0,0.2,0.1,0.3,0.1,0.5c0.5,1.4,0.7,2.8,0.8,4.3c0,0.6,0,1.3,0.2,1.9c0-0.2,0-0.3,0-0.5C87.6,72.4,87.8,72.9,87.9,73.2z"/>
		<path class="st8" d="M110.7,72.9c-1-0.1-2.1,0.3-3.1,0.3c-0.7,0.1-1.3,0-1.9,0.4c-0.4,0.2-0.9,0.3-1.5,0.2
			c-0.5-0.1-0.9,0.1-1.3,0.2s-0.9,0.2-1.2,0.5c-0.5,0.5-1.2,0.6-1.5,1.3c0,0.1-0.2,0.2-0.4,0.2c-0.2,0.1-0.1,0.2,0,0.2
			c0.2,0.1,0,0.5,0.3,0.6c0-0.3,0.2-0.5,0.3-0.8c0-0.1,0-0.2,0.1-0.4c0.1,0.3,0.2,0.6,0.6,0.6c0-0.2,0-0.4,0-0.5
			c0.1,0.4,0.6,0.6,0.6,1c0-0.1,0-0.2,0.1-0.4c0.1,0.2,0.2,0.4,0.3,0.6c0.1,0,0.1-0.3,0.2-0.2c0.2,0.4,0.3,0.1,0.4-0.1
			c0.1-0.1,0.2-0.2,0.2-0.4c0-0.1,0.1-0.1,0.2-0.2s0.1,0.1,0.1,0.2c0.1,0.2,0.2,0.5,0.3,0.8c0-0.3,0.1-0.4,0.1-0.6
			c0-0.3,0.1-0.6,0.3-0.6c0.2-0.1,0.2,0.3,0.4,0.4c0.2-0.1,0.3-0.3,0.4-0.5s0.2-0.2,0.3,0c0.1-0.4,0.3-0.2,0.4,0c0,0,0.1,0,0.1,0.1
			c0.1,0,0.2,0,0.3,0c0,0,0.1,0,0.1-0.1c0.4-0.3,0.8-0.6,1.4-0.6c0.4,0,0.7-0.1,1-0.3c0.1-0.1,0.3-0.2,0.5-0.2
			c1.3,0.1,2.5-0.3,3.8-0.4c0-0.6,0-1.2,0-1.8c-0.5,0-1,0.2-1.5,0.4C110.9,72.9,110.8,72.9,110.7,72.9z"/>
		<path class="st9" d="M113,57.4c-1.1-0.1-2.2-0.2-3.3-0.2c-0.7,0-1.3,0.2-2,0.1c-0.9-0.2-1.7-0.1-2.6-0.2c-0.7-0.1-1.4,0.2-2.1,0
			c0,0,0,0-0.1,0h-0.1c-0.1,0-0.2,0.1-0.2,0.2c-0.2,0.2-0.4,0.3-0.7,0.2c-1.1,1-2.5,1.5-3.9,1.9c0.1,0.1,0.2,0.1,0.3,0.2
			c0.4-0.2,0.8-0.3,1.1,0.1c0.1,0.1,1.1,0.1,1.2-0.1c0.3-0.4,0.7-0.3,1.1-0.3c0.8,0.2,1.6,0.2,2.4,0.3c2.1,0.3,4.2,0,6.2,0.2
			c1,0.1,2-0.1,2.9,0.3c0.3-1,0.6-2,0.9-3c-0.1,0-0.2,0-0.3,0.1C113.4,57.4,113.2,57.5,113,57.4z M100.3,59.5c-0.1,0-0.2,0-0.3,0.1
			c-0.2,0-0.4,0.1-0.4-0.2c0-0.2,0.2-0.2,0.3-0.3c0.1,0,0.2-0.1,0.3-0.2c0.2,0,0.3-0.4,0.5,0C100.7,59.2,100.6,59.4,100.3,59.5z"/>
		<path class="st10" d="M108.1,54.8c-0.6,0.1-1.3,0-1.9-0.1c-0.2,0-0.3-0.2-0.4-0.4c-0.1-0.4-0.3-0.5-0.7-0.5H105
			c-0.9,0-1,0-1.1,0.9c0,0.2-0.1,0.3-0.2,0l0,0c-0.4,1.1-1,1.9-1.8,2.7c0.3,0.2,0.5,0,0.7-0.2c0.1-0.1,0.1-0.1,0.2-0.2h0.1
			c0,0,0,0,0.1,0c0.7,0.2,1.4-0.1,2.1,0c0.9,0.1,1.7,0,2.6,0.2c0.7,0.2,1.3-0.1,2-0.1c1.1,0,2.2,0.1,3.3,0.2c0.2,0,0.4,0,0.6-0.1
			c0.1,0,0.2-0.1,0.3-0.1c0.3-0.9,0.6-1.9,0.8-2.8c-0.7,0-1.4,0-2.1,0C111.1,54.5,109.6,54.6,108.1,54.8z"/>
		<path class="st11" d="M108.3,74.9c-0.3,0.2-0.6,0.4-1,0.3c-0.5,0-1,0.3-1.4,0.6l-0.1,0.1c-0.1,0.1-0.2,0.1-0.3,0c0,0,0,0-0.1-0.1
			s-0.3-0.3-0.4,0c0.3,0.3,0.3,0.8,0.9,0.7c0.1,0,0.4,0,0.4,0.3c0,0.1,0.1,0.2,0.3,0.2c0.1,0,0.2,0,0.2-0.2s0-0.2,0.2-0.1
			s0.3-0.1,0.3-0.3v-0.1c0.2,0.3,0.6,0.1,0.8,0.3l0,0l0,0l0,0l0,0c0,0.2,0.1,0.3,0.2,0.5c0.2-0.6,0.4-0.4,0.6,0
			c0.3-0.4,0.3-0.4,0.6-0.5c0.3-0.1,0.7,0.3,0.8-0.2c0,0,0.2,0,0.3,0.1c0.1,0.3,0.3,0.3,0.6,0.3c0-0.3,0-0.5,0.4-0.5
			c0.2,0,0.4-0.2,0.4-0.4c0.2,0.1,0.2,0.2,0.1,0.3c0,0.2,0,0.3,0.3,0.3l0.1,0.1c0-0.7,0-1.5,0-2.2c-1.3,0.2-2.5,0.5-3.8,0.4
			C108.6,74.7,108.4,74.7,108.3,74.9z"/>
		<path class="st12" d="M110,66.3L110,66.3c0,0.1,0,0.1,0.1,0.2s0.2,0.3,0.3,0.4c0.1,0.1,0.1,0.1,0.2,0.2c0.2,0.1,0.2,0.2,0,0.4
			c-0.1,0.1-0.2,0.1-0.4,0.1c-0.1,0-0.3-0.1-0.3,0.1s0.2,0.2,0.3,0.3c0.3,0,0.4,0.3,0.4,0.5c0,0.3,0,0.6-0.4,0.7
			c-0.6,0.1-1.3,0.2-1.3,1.1l0,0c-0.1,0.1-0.2,0.3-0.3,0.3c-0.2,0-0.2-0.1-0.3-0.2c-0.1-0.2-0.2-0.4-0.5-0.5c0,0.2,0.1,0.3,0,0.5
			c-0.2,0-0.1-0.2-0.2-0.2c-0.3,0-0.1,0.2-0.1,0.3c0.2,0.5,0.1,0.6-0.4,0.7c-0.3,0-0.6,0-0.9,0.1c-1,0.3-2.1,0.6-3.1,0.6
			c-0.2,0-0.4,0-0.5,0.2c-0.6,0.5-1.3,0.8-2.2,0.8c-0.6,0-1.1,0-1.6,0.4c-0.1,0.1-0.2,0.1-0.3,0.1c-0.8,0-1.6,0.1-2.4,0.1
			c-0.9,0-1.5,0.8-1.2,1.6c0.1,0.4-0.1,0.4-0.3,0.5c-0.4,0.1-0.8,0.1-1.2,0.1c-0.6,0-0.9-0.3-1.1-0.7c-0.2-0.3-0.4-0.4-0.7-0.4
			c-0.9,0.1-1.6-0.3-2.3-0.5c-0.4-0.1-0.8-0.3-1-0.8c-0.1-0.3-0.3-0.8-0.8-0.8c0,0.2,0,0.3,0,0.5s0,0.4,0,0.6l0,0l0,0
			c0.2,0.4,0,0.8,0.1,1.3c0.1,0.1,0.1,0.1,0.1,0.2c0.1,0.4,0.1,0.8,0.6,0.2c0.1-0.1,0.2-0.1,0.3,0c0.4,0.5,1,0.4,1.5,0.5
			c0.3,0.1,0.6,0.1,0.8,0.3c0.1,0.1,0.1,0.1,0.2,0.2c0.1,0,0.2,0.1,0.2,0.2c0.4,0.1,0.8,0.2,1.1,0.7c0-0.4,0.2-0.5,0.4-0.5
			c-0.1-0.2,0-0.3,0.2-0.4c0.3-0.2,0.6-0.3,1-0.2c0.2,0,0.4,0,0.5,0.2s-0.2,0.2-0.3,0.3c0,0,0,0.1,0.1,0.2c0.5,0.1,0.8,0.1,0.8-0.6
			l0,0c0.1-0.2,0.4,0.1,0.5-0.2l0,0c0-0.1,0-0.3,0-0.4c0.1,0.3,0.1,0.6,0.2,0.9c0,0.1,0,0.2,0.2,0.2c0.5,0.1,0.4-0.3,0.4-0.6
			c0-0.2-0.1-0.4,0.1-0.7c0.1,0.2,0.1,0.4,0.1,0.6l0,0c0,0.1,0,0.2,0.2,0.2c0.1,0,0.1-0.1,0.1-0.2c-0.1-0.1-0.1-0.2,0-0.3
			c0.1-0.1,0.1,0.1,0.2,0.1c0.1,0.1,0.2,0.1,0.3,0.2c0,0.1,0.1,0.1,0.1,0.2c0.2,0.2,0,0.4,0.2,0.6l0,0l0,0c0.1-0.2,0.4,0.1,0.4-0.2
			c0-0.3,0.1-0.4,0.4-0.3c0.1,0,0.2-0.1,0.3-0.2c0.1-0.1,0.2-0.2,0.3-0.1c0.1,0.1,0.2,0.1,0.2-0.1s0.1-0.1,0.2,0
			c0.2,0.2,0.6,0.3,0.8,0.6c0.1,0.2,0.1-0.1,0.1-0.1c-0.1-0.1-0.2-0.1,0-0.2c0.1-0.1,0.3-0.1,0.4-0.2c0.3-0.7,1-0.8,1.5-1.3
			c0.3-0.3,0.8-0.4,1.2-0.5c0.4-0.1,0.9-0.3,1.3-0.2c0.5,0.1,1.1,0,1.5-0.2c0.6-0.3,1.3-0.3,1.9-0.4c1-0.1,2-0.4,3.1-0.3
			c0.1,0,0.2,0,0.3-0.1c0.5-0.2,1-0.3,1.5-0.4c0-2.3-0.1-4.6-0.1-6.9C111.6,65.8,110.8,66,110,66.3z"/>
		<path class="st13" d="M115.1,49.5c-0.1,0.1-0.2,0.1-0.4,0.1c-0.4,0-0.8,0.1-1.2-0.1c-0.2-0.1-0.4-0.1-0.5,0.1
			c-0.2,0.4-0.6,0.4-0.9,0.4s-0.6,0-0.9,0.1c-0.4,0.2-0.7,0.1-0.9-0.3c-0.1,0.4-0.5,0.3-0.8,0.4c-0.2,0-0.3,0-0.5,0.2
			c-0.2,0.3-1.1,0.5-1.5,0.4c-0.2-0.1-0.2-0.3-0.2-0.5c0-0.1,0.1-0.3-0.1-0.4c-0.2-0.1-0.4-0.1-0.5,0c-0.2,0.2-0.4,0.2-0.7,0.2
			c-0.1,0-0.2,0.1-0.2,0.1c0,0.6-0.7,0.6-0.9,1c-0.1,0.2-0.3,0.2-0.4,0.3c0.2,0.3,0.5,0.5,0.8,0.6c0.1,0,0.2,0,0.2,0.1
			s-0.1,0.1-0.2,0.1c-0.4,0-0.7,0.1-1.1-0.3c-0.6-0.6-0.3-1.2-0.4-1.8c0,0.2-0.1,0.4-0.1,0.5c0,1,0,2-0.1,3c0.2,0,0.2-0.2,0.2-0.3
			c0-0.2,0-0.4,0.1-0.7c0.4,0.9,1.1,0.4,1.6,0.4c0.6,0,1.2-0.2,1.9,0.2c0.4,0.2,0.9,0.2,1.4-0.1c0.3-0.2,0.6-0.2,0.9-0.2
			c0.9,0,1.8,0.2,2.6-0.1c0.5-0.2,1-0.4,1.6-0.3c0.4,0.1,0.8,0.1,1.2,0c0.3-1.2,0.7-2.3,1-3.5c-0.1,0-0.1,0-0.2,0
			C115.7,49.1,115.3,49,115.1,49.5z"/>
		<path class="st14" d="M103.9,59.7c-0.8-0.1-1.6-0.1-2.4-0.3c-0.4-0.1-0.8-0.2-1.1,0.3c-0.1,0.1-1.1,0.2-1.2,0.1
			c-0.3-0.5-0.7-0.3-1.1-0.1c0.6,0.6,1.4,0.8,2.2,1.2c0.4,0.2,0.8,0.4,1.3,0.6c0.1,0.1,0.3,0.2,0.1,0.3c-0.3,0.1-0.5,0.4-0.8,0.3
			c-0.5-0.1-0.9-0.3-1.4-0.4c0.3,0.3,0.6,0.6,1,0.6c0.3,0,0.6,0,0.9,0c0.4-0.3,0.7-0.8,1.3-0.6c0.6,0.1,1.2-0.1,1.7,0.2
			c0.1,0.1,0.3,0,0.4-0.1c0.3-0.1,0.7-0.1,1,0c0.1,0,0.1,0.1,0.2,0.1c0.7-0.3,1.3,0,2,0.1c1.2,0.1,2.5,0.2,3.7,0.4
			c0.2,0,0.4,0.1,0.6,0.2c0-0.1,0-0.2,0-0.3c0.2-0.7,0.4-1.4,0.6-2.1c-0.9-0.3-1.9-0.2-2.9-0.3C108.1,59.7,106,60,103.9,59.7z"/>
		<path class="st15" d="M86.7,66.3c2,0.4,4.1,0.5,6.2,0.3c1-0.1,2.1-0.4,2.8-1.2c1-1,2.1-1.3,3.4-1c1.2,0.2,2.4,0.8,3.5,1.2
			c0.3,0,0.6-0.1,1-0.1c0.1,0,0.2,0,0.2-0.1c0.3-0.7,0.8-0.5,1.3-0.5c0.1,0,0.1,0,0.2,0c0.2,0,0.4-0.1,0.4-0.3
			c0-0.2-0.2-0.2-0.4-0.2c-0.1,0-0.3,0-0.4,0c-0.3,0-0.5-0.1-0.6-0.4c-0.2-0.7-0.3-0.8-1.1-0.8c-0.3,0-0.6,0.1-0.6-0.4
			c0-0.3-0.4-0.3-0.5,0s-0.3,0.3-0.5,0.3c-0.1,0-0.3,0-0.3-0.2s0.2-0.1,0.3-0.2c0.1,0,0.2-0.1,0.2-0.2c0-0.1-0.1-0.1-0.2-0.2
			c-0.3,0-0.6,0-0.9,0c-0.4,0-0.8-0.3-1-0.6c-1-0.4-2-0.8-2.9-1.4c-0.4-0.2-0.7-0.5-1.2-0.4c-0.2,0-0.4-0.1-0.6-0.2
			c-0.3-0.3-0.8-0.3-1.2-0.5c0.1,0.3,0.2,0.6,0.2,0.9c0,0.6,0.3,1,0.7,1.4c0.4,0.3,0.8,0.7,1,1.2c0.1,0.1,0.1,0.3,0,0.4
			c-0.1,0.1-0.3,0-0.4-0.1c-0.5-0.3-1-0.7-1.4-1c-0.6-0.5-1.4-0.7-2.2-0.6c-0.9,0.1-1.8,0.1-2.7-0.2c-0.1,0-0.2,0-0.3,0.1
			c-0.7,0.9-1.7,1.2-2.8,1.4c-0.2,0-0.3,0.1-0.2,0.3c0.2,0.4,0.2,0.8,0.2,1.3c0,0.7,0,1.4,0.3,2.1l0,0
			C86.2,66.3,86.5,66.3,86.7,66.3z"/>
		<path class="st16" d="M46.7,57.5C46.7,57.6,46.7,57.7,46.7,57.5c0.3,0,0.4-0.1,0.5-0.3c0.1-0.1,0.4-0.3,0.5-0.2
			c0.6,0.4,1.3,0.1,1.9,0.4c0.7,0.4,1.6,0.2,2.4,0.4c0.4,0.1,0.7-0.3,1.1-0.3c0.6-0.1,1.2-0.1,1.8-0.1c1.2,0.1,2.3,0.2,3.5-0.2
			c0.3-0.1,0.7-0.1,1.1,0c0.3,0,0.5,0.1,0.4-0.3c0-0.1,0.1-0.2,0.2-0.2c0.2,0.1,0.4,0.1,0.7,0C61,56.6,61,56.8,61,57
			c0.1,0.1-0.2,0.3,0.1,0.4c0.4-0.7,1-1.3,1.6-1.9c0.9-0.9,2-1.5,2.9-2.3c-0.3-0.1-0.1-0.3-0.1-0.4c-0.1-0.2-0.2-0.4-0.4-0.2
			c-0.2,0.3-0.5,0.3-0.8,0.3c-0.3,0-0.6,0.1-0.9,0.1c-0.7,0-1.4,0.3-2.1,0.2c-0.6-0.1-1.2-0.1-1.8-0.1c-1.2,0-2.3-0.4-3.5-0.1h-0.1
			c-1-0.2-1.9-0.3-2.9-0.1c-0.2,0-0.3,0-0.5-0.1c-0.4-0.1-0.8-0.3-1.2-0.6c-0.5-0.3-1.1-0.6-1.7-0.3c-0.1,0-0.2,0-0.3-0.1
			c-0.3-0.2-0.6-0.2-0.9-0.2c-0.2,0-0.4,0-0.6,0c-0.2,0.6-0.4,1.1-0.5,1.7c0,0.1,0.1,0.2,0,0.3c0,0.1-0.1,0.1-0.2,0.1l0,0
			C47.4,55.1,47.4,56.3,46.7,57.5z"/>
		<path class="st17" d="M49.6,61.5c1,0.1,2,0,2.9-0.1c1.4-0.2,2.8-0.1,4.1,0c0.3,0,0.6,0.3,0.7-0.2c0-0.1,0.3-0.1,0.4,0.1
			c0.1,0.1,0.2,0.2,0.2,0.4c0-0.1,0.1-0.2,0.1-0.3c0.4-1.5,1.2-2.8,2.6-3.7c0.2-0.1,0.3-0.2,0.3-0.4c-0.3-0.1,0-0.3-0.1-0.4
			c0-0.1,0-0.4-0.2-0.3c-0.2,0.1-0.4,0.2-0.7,0c-0.1-0.1-0.2,0-0.2,0.2c0.1,0.4-0.2,0.3-0.4,0.3c-0.4-0.1-0.8-0.1-1.1,0
			c-1.2,0.4-2.3,0.3-3.5,0.2c-0.6,0-1.2,0-1.8,0.1c-0.4,0.1-0.7,0.4-1.1,0.3c-0.8-0.1-1.6,0.1-2.4-0.4c-0.6-0.3-1.3,0-1.9-0.4
			c-0.1-0.1-0.3,0.1-0.5,0.2c-0.1,0.1-0.3,0.3-0.4,0.4c-0.1,0.1-0.1,0-0.1-0.1c-0.1,0.1-0.2,0.2-0.3,0.3c-0.1,1.2-0.2,2.4-0.2,3.6
			C47.3,61.3,48.5,61.4,49.6,61.5z"/>
		<path class="st18" d="M102,50c0.1-0.7-0.4-1.1-1-0.9c-0.7,0.2-1.5,0.4-2.3,0.2c-0.7-0.1-1.4-0.5-2.1-0.4c-0.5,0.1-1,0.1-1.5-0.1
			c-0.3-0.1-0.6-0.2-0.9-0.2c-0.4,0-0.8,0-1.2-0.1c-0.5-0.1-1.1,0-1.6,0.1c-0.7,0.2-1.4,0.6-2.2,0.6c-0.1,0-0.4,0.1-0.3,0.2
			c0.1,0.3-0.1,0.2-0.2,0.2s-0.2,0-0.3,0.1c1-0.1,1.8,0.1,2.6,0.7c0.2,0.2,0.5,0.3,0.8,0.4c1.3,0.6,2.5,1.4,3.4,2.5
			c0.3,0.4,0.7,0.8,1,1.1c1.2,1,2.5,1.1,4,0.9c0.2,0,0.3-0.1,0.5-0.2c0.7-0.5,1.1-1.3,1.3-2.1c0.3-1,0.1-2,0.3-2.9l0,0
			C101.8,50.3,102,50.1,102,50z"/>
		<path class="st19" d="M72.4,75.6c0.1,0.1,0.1,0.1,0.2,0.2c0.5-0.2,0.8-0.7,1.1-1.1c0.4-0.6,0.9-1.2,1.3-1.7
			c0.3-0.4,0.7-0.4,1.1-0.5c0.9-0.3,1.8-0.7,2.7-0.9c0.4-0.1,0.3-0.5,0.4-0.7c0.1-1.2-0.4-2.2-0.9-3.2c-0.1-0.1-0.1-0.2-0.3-0.1
			c-1,0.4-2,0.4-2.9,0.8C74,68.8,73,69,71.8,68.9c-0.4,0-0.8,0-1.1,0c-0.5,0.1-1.1,0.2-1.4,0.7c-0.2,0.5-0.3,1-0.4,1.5
			c-0.1,1.5,0.8,2.7,1.3,4.1C71,75.2,71.7,75.4,72.4,75.6L72.4,75.6z"/>
		<path class="st20" d="M61.6,68.6c0-0.6,0-1.2-0.4-1.7c-0.9-1.3-1.1-2.8-1.2-4.3c0-0.2,0-0.4-0.1-0.5c-0.9,0.2-1,1-1.1,1.7
			c0,0.2,0,0.4-0.1,0.6c-0.2,1.3-0.2,2.6-0.6,3.9c-0.1,0.4-0.4,0.7-0.5,1.2c-0.1,0.9-0.5,1.2-1.4,1c-0.3-0.1-0.5,0-0.8,0.2
			c-0.8,0.6-1.4,0.5-2.1-0.1c-0.3-0.3-0.6-0.3-0.9-0.3c-0.6,0-1.2,0.5-1.8,0.2c-0.1-0.1-0.3,0.1-0.3,0.2c0,0.2,0.1,0.4,0.2,0.5
			c0.2,0.2,0.4,0.5,0.4,0.8c0.1,0.1,0.1,0.2,0,0.2c-0.2,0.1-0.3-0.1-0.5-0.2c-0.2,0-0.1-0.2,0-0.3c-0.3-0.3-0.5-0.6-0.9-0.6
			c-0.3,0-0.6,0-0.9,0.1c-0.2,0.2-0.4,0.4-0.7,0.6c-0.2,0.1-0.2,0.1-0.1-0.1c-0.2,0.1-0.5,0-0.4,0.4c0.1,0.3,0.2,0.5,0.3,0.8
			c0.1-0.5,0.6-0.7,1.3-0.5c0.4,0.1,0.8,0.2,1.2,0.2c3.5,0,7.1,0,10.6,0c0.1,0,0.3,0,0.4,0c0.2,0,0.4-0.3,0.5-0.1
			c0.2,0.2,0.1,0.4,0.1,0.7c0,0.4,0,0.9,0,1.3l0,0c0.1-1.1,0.1-2.3-0.1-3.4C61.8,70.2,61.6,69.4,61.6,68.6z"/>
		<path class="st21" d="M114.1,52.5c-0.5-0.1-1,0.1-1.6,0.3c-0.8,0.3-1.7,0.1-2.6,0.1c-0.3,0-0.6,0.1-0.9,0.2
			c-0.4,0.3-1,0.3-1.4,0.1c-0.6-0.3-1.2-0.2-1.9-0.2c-0.5,0-1.2,0.5-1.6-0.4c-0.1,0.3-0.1,0.5-0.1,0.7s0,0.3-0.2,0.3
			c-0.1,0.3-0.1,0.6-0.2,1l0,0c0.1,0.3,0.2,0.2,0.2,0c0.2-0.9,0.2-0.9,1.1-0.9h0.1c0.4,0,0.6,0.1,0.7,0.5c0,0.2,0.1,0.4,0.4,0.4
			c0.6,0,1.3,0.1,1.9,0.1c1.5-0.2,3-0.3,4.5-0.3c0.7,0,1.4,0,2.1,0c0.2-0.6,0.4-1.3,0.6-1.9C114.9,52.6,114.5,52.6,114.1,52.5z"/>
		<path class="st22" d="M62,72.4c-0.1-0.2-0.3,0.1-0.5,0.1c-0.1,0-0.3,0-0.4,0c-3.5,0-7.1,0-10.6,0c-0.4,0-0.8,0-1.2-0.2
			c-0.7-0.2-1.2,0-1.3,0.5c0,0.5,0.3,1,0.3,1.5c1.2,0.4,2.3,0.9,3.5,0.9c1.1,0.1,2.2-0.1,3.2-0.4c0.5-0.1,0.9-0.4,1.1-0.9
			c0.3-0.5,0.7-0.5,1.1-0.5c1.3,0.2,2.4,0.8,3.7,1.1c0.3,0.1,0.5,0.2,0.8,0.3c0.2,0.1,0.3,0,0.5-0.1c0-0.2,0-0.3,0-0.5l0,0
			c0-0.4,0-0.9,0-1.3C62.1,72.9,62.2,72.6,62,72.4z"/>
		<path class="st23" d="M61.6,75c-0.2-0.1-0.5-0.2-0.8-0.3c-1.2-0.4-2.4-1-3.7-1.1c-0.5-0.1-0.9,0-1.1,0.5c-0.2,0.4-0.6,0.7-1.1,0.9
			c-1.1,0.3-2.1,0.5-3.2,0.4c-1.2-0.1-2.4-0.5-3.5-0.9c0,0.5,0,1-0.2,1.5c-0.1,0.3-0.1,0.6-0.1,0.9c0,0.1,0,0.2,0.1,0.2
			c0.2,0,0.1-0.1,0.2-0.2c0.1-0.2,0.2-0.3,0.4-0.5c0,0.3,0.1,0.5,0.3,0.5c0.5,0,0.5-0.4,0.7-0.7c0.1,0.3,0.1,0.6,0.2,1
			c0.4-0.8,0.2,0.3,0.4,0.1c0.2-0.4,0.2-0.9,0.4-1.4c-0.1,0.6,0.4,0.9,0.4,1.5c0.2-0.2,0.2-0.4,0.3-0.6c0.1-0.3,0.1-0.4,0.3-0.1
			c0.2,0.2,0.4,0.3,0.5-0.2c-0.2,0.6,0.5,0.6,0.5,1.1c0.1-0.3,0.2-0.5,0.3-0.8c0.7,0.7,0.5-0.2,0.7-0.4c0.1,0.1,0,0.3,0.1,0.4
			c0.4-0.3,0.8-0.2,0.9,0.2c-0.1-0.4,0.4-0.4,0.3-0.8c0.5,0.5,0.5,0.5,0.8,0c0,0.4,0.4,0.4,0.4,0.7c0,0.1,0.1,0.1,0.2,0.1
			c0.5,0,1-0.1,1.5,0c0.3,0.1,0.7,0.1,1.1,0c0.1,0,0.2-0.3,0.4-0.2c0.4,0.3,0.5,0,0.5-0.3c0-0.2,0.1-0.3,0.3-0.3
			c0.3,0,0.3,0.1,0.3,0.3c0,0.1,0,0.3,0.1,0.4c0,0.1,0.1,0.2,0.2,0.1c0.1-0.2,0.3-0.1,0.4-0.1c0.2,0,0.5-0.2,0.6-0.3
			c0.1-0.5,0.3-1,0.4-1.6C61.9,75,61.8,75.2,61.6,75z"/>
		<path class="st24" d="M78.8,71.5c-0.9,0.2-1.8,0.6-2.7,0.9c-0.4,0.1-0.8,0.2-1.1,0.5c-0.4,0.6-0.9,1.1-1.3,1.7
			c-0.3,0.4-0.6,0.9-1.1,1.1c0.1,0.2,0.4,0.1,0.5,0.3l0,0c0,0.2,0.1,0.4,0.3,0.4c0.2-0.1,0-0.3,0.2-0.4c0,0.2,0.1,0.4,0.1,0.7
			c0.1-0.2,0.1-0.5,0.4-0.6c0.1,0.2,0.1,0.4,0.2,0.5c0.1,0,0-0.2,0.2-0.2s0.5,0.2,0.7,0c0,0,0.1,0,0.1,0.1c0.3,0,0.7-0.2,0.6,0.4
			c0.2,0.2,0.1,0.5,0.2,0.6c0.7-0.1,1-0.6,0.9-1.3c0.3,0.6,0.6,0.6,1,0.2c0.2-0.2,0.2-0.4,0.3-0.7c0.2,0.2,0.3,0.3,0.3,0.5
			c0.1-0.1,0.1-0.2,0.1-0.2c0.5-0.1,0.4-0.5,0.4-0.8c0-1.1-0.1-2.1,0.2-3.2c0.1-0.5,0.1-1,0-1.5C79.1,71,79.2,71.4,78.8,71.5z"/>
		<path class="st18" d="M104.3,52c0.4,0.4,0.7,0.3,1.1,0.3c0.1,0,0.2-0.1,0.2-0.1c0-0.1-0.1-0.1-0.2-0.1c-0.4-0.1-0.6-0.3-0.8-0.6
			c0.1-0.1,0.3-0.2,0.4-0.3c0.2-0.4,0.9-0.4,0.9-1l0.2-0.1c0.3,0,0.5-0.1,0.7-0.2c0.1-0.1,0.3-0.1,0.5,0s0.1,0.2,0.1,0.4
			s0,0.4,0.2,0.5c0.3,0.2,1.2,0,1.5-0.4c0.1-0.2,0.3-0.2,0.5-0.2c0.3-0.1,0.7,0,0.8-0.4c-0.1-0.3-0.3-0.2-0.5-0.2
			c-1.2,0.1-2.4-0.2-3.6,0.2c-0.5,0.1-0.9-0.1-1.3-0.3c-0.2-0.1-0.5-0.1-0.6,0.1c-0.2,0.2-0.1,0.4,0.1,0.6c0.1,0.1,0.1,0.2-0.1,0.2
			c-0.1,0.3-0.3,0.2-0.4,0c0,0,0,0,0,0.1C104.1,50.8,103.8,51.4,104.3,52z"/>
		<path class="st25" d="M83.6,76.9c0.1-0.2,0.1-0.4,0.2-0.6c0,0.1,0,0.2,0,0.3c0,0.2,0,0.4,0.3,0.3c0.2-0.1,0.2-0.2,0.2-0.4
			c0-0.1,0-0.2-0.1-0.3c-0.4-0.8-0.6-1.7-0.8-2.6c-0.1-0.5-0.3-1-0.6-1.5c-0.1,0.5-0.2,0.9-0.2,1.3c-0.1,1.1-0.1,2.2-0.8,3.2
			c-0.2,0.3-0.2,0.6,0,1c0.1-0.5,0.6-0.4,0.8-0.7C82.9,77,83.3,76.3,83.6,76.9z"/>
		<path class="st26" d="M89.8,75.7c-0.5-0.2-1.1-0.1-1.5-0.5c-0.1-0.1-0.2-0.2-0.3,0c-0.4,0.5-0.5,0.2-0.6-0.2
			c0-0.1-0.1-0.1-0.1-0.2c0,0.4,0,0.9,0,1.3l0,0l0,0c0,0.3,0,0.6,0.1,0.9s0.4,0.3,0.6,0.3c0.3-0.1,0.4-0.4,0.8-0.5
			c0.3-0.1,0.2,0.1,0.4,0.2c0.1-0.4,0.1-0.6,0.6-0.7c0.4-0.1,0.5,0.5,0.7,0.8c0.1-0.3,0-0.6,0.2-0.9C90.3,75.8,90,75.8,89.8,75.7z"
			/>
		<path class="st27" d="M66.4,75.8L66.4,75.8L66.4,75.8c-0.3-0.7-0.5-1.4-0.4-2.2c0-0.4-0.1-0.8-0.4-1.1c-0.2,0.4-0.3,0.8-0.3,1.2
			c0,0.7,0.1,1.4,0.2,2.1C65.8,76.1,66.1,76.1,66.4,75.8z"/>
		<path class="st28" d="M72.4,75.6L72.4,75.6L72.4,75.6c-0.7-0.2-1.4-0.4-2.2-0.4c0,0.8,0.8,1.2,0.9,1.9h0.1
			c0.1-0.4,0.1-0.7,0.2-1.1c0.3,0.1,0.3,0.4,0.4,0.6c0.1-0.2,0.1-0.4,0.3-0.5C72.3,76,72.3,75.9,72.4,75.6
			C72.2,75.5,72.4,75.6,72.4,75.6z"/>
		<path class="st7" d="M93.9,76.5c0.1-0.1,0.4-0.1,0.3-0.3C94.1,76,93.9,76,93.7,76c-0.4-0.1-0.7,0-1,0.2c-0.2,0.1-0.2,0.2-0.2,0.4
			c0.2-0.1,0.4,0.3,0.7,0.1c0.1-0.1,0.1,0,0.2,0.1c0.1,0.4,0.3,0.4,0.5,0c0,0,0.1-0.1,0.2-0.1l0,0C93.9,76.6,93.9,76.5,93.9,76.5z"
			/>
		<path class="st29" d="M66.4,75.8c-0.3,0.3-0.6,0.3-0.9,0c0.1,0.5,0,1,0.5,1.4c0.2,0.1,0.2,0.1,0.4-0.1
			C66.6,76.6,66.7,76.2,66.4,75.8L66.4,75.8z"/>
		<path class="st18" d="M88.7,49.2c0,0,0.2,0,0.3-0.1c0.4-0.1,0.8,0,1.2-0.3c-0.5-0.3-1-0.1-1.5-0.3c-0.3-0.1-0.2,0.3-0.4,0.4h-0.1
			c0,0.2,0.1,0.4,0,0.6l0,0C88.4,49.5,88.6,49.4,88.7,49.2z"/>
		<path class="st5" d="M47.3,53.6c0-0.1,0-0.2,0-0.3c0,0.1-0.1,0.3-0.1,0.4C47.2,53.7,47.3,53.7,47.3,53.6z"/>
		<path class="st30" d="M46.3,77.3c0-0.5,0.1-1.1,0-1.7C45.9,76.2,46.1,76.8,46.3,77.3z"/>
		<path class="st31" d="M112.1,75.8c0,0.3-0.2,0.4-0.4,0.4c-0.4,0-0.4,0.2-0.4,0.5c0.2-0.1,0.4-0.4,0.7-0.1c0.2-0.1,0-0.4,0.2-0.5
			C112.2,76,112.2,75.9,112.1,75.8z"/>
		<path class="st32" d="M100.5,75.8c-0.1,0.2-0.1,0.3-0.1,0.4c0.1,0.2,0.1,0.5,0.3,0.6c0,0,0.3-0.1,0.3-0.3
			C100.7,76.4,100.6,76.1,100.5,75.8z"/>
		<path class="st7" d="M87.2,74.7c-0.1-0.4,0.1-0.9-0.1-1.3l0,0c0,0.9-0.1,1.7,0.1,2.6l0,0C87.2,75.6,87.2,75.1,87.2,74.7z"/>
		<path class="st33" d="M72.6,75.8c-0.1-0.1-0.1-0.1-0.2-0.2l0,0c0,0-0.2,0-0.1,0.1c0.3,0.7,0.3,0.7,0.8,0.4l0,0
			C72.9,75.9,72.6,76,72.6,75.8z"/>
		<path class="st7" d="M94.7,76.1c0.2,0.3,0.1,0.6,0.3,0.9c0-0.2,0-0.4,0-0.6s0.3-0.3,0.2-0.5l0,0C95.1,76.1,94.9,75.9,94.7,76.1z"
			/>
		<path class="st34" d="M74.3,76.7c0.1,0.2,0.1,0.3,0.2,0.5c0.2,0,0.1-0.3,0.2-0.2c0.4,0.2,0.3-0.1,0.3-0.3
			C74.8,76.9,74.6,76.7,74.3,76.7z"/>
		<path class="st8" d="M108.3,76.7L108.3,76.7c-0.3-0.2-0.6,0-0.8-0.3v0.1C107.7,76.8,107.9,77,108.3,76.7L108.3,76.7L108.3,76.7z"
			/>
		<path class="st22" d="M50.6,72c0.2,0,0.3,0.3,0.5,0.2c0.1-0.1,0.1-0.2,0-0.2c-0.2,0-0.3-0.2-0.5-0.3C50.5,71.8,50.4,72,50.6,72z"
			/>
		<path class="st22" d="M48.1,71.8c0.2-0.2,0.4-0.4,0.7-0.6C48.4,71.1,48.3,71.6,48.1,71.8C47.9,71.8,47.9,71.9,48.1,71.8z"/>
		<path class="st34" d="M75.1,76.8c0,0.4,0.4,0.2,0.6,0.4C75.8,76.6,75.4,76.7,75.1,76.8z"/>
		<path class="st7" d="M96.6,75.8c0-0.1,0-0.2-0.2-0.1c-0.1,0.1-0.1,0.2,0,0.3c0.1,0.1,0,0.3,0.2,0.4c0.1-0.1,0.2-0.2,0.2-0.4
			C96.8,76,96.7,75.9,96.6,75.8z"/>
		<path class="st7" d="M90.7,76.2c0,0.3,0,0.6,0.2,0.9c0-0.3,0-0.5,0.1-0.7C90.9,76.3,90.8,76.2,90.7,76.2z"/>
		<path class="st13" d="M104.4,50.2c-0.2-0.1-0.3-0.3-0.3-0.5c-0.1,0.2-0.1,0.3-0.1,0.5C104.1,50.4,104.2,50.5,104.4,50.2z"/>
		<path class="st7" d="M96.1,75.4C96,75.7,96,75.9,96,76.1c0.1,0,0.1-0.1,0.2-0.1l0,0C96.2,75.8,96.3,75.6,96.1,75.4z"/>
		<path class="st8" d="M112.6,76.7c0-0.1,0-0.2,0-0.2s-0.1,0-0.1-0.1C112.5,76.5,112.5,76.7,112.6,76.7z"/>
		<path class="st13" d="M105.1,48.2c0.2,0.4-0.1,0.6-0.4,0.7l0,0C105.3,48.9,105.4,48.7,105.1,48.2z"/>
		<path class="st7" d="M97,76.2c0,0.2,0,0.5,0,0.7c0.1,0.2,0.1,0,0.1-0.1l0,0C97,76.6,97.2,76.3,97,76.2z"/>
		<path class="st35" d="M62,35.1c0,0.1,0,0.3,0,0.4c0,0.4,0.2,0.6,0.6,0.6c1.4,0,2.8,0,4.2,0c0.2,0,0.4-0.1,0.5,0.1
			c1,0,1.1-0.1,0.9-1.1c0-0.2,0-0.3,0.2-0.4c0.3-0.1,0.6-0.1,0.6-0.6c0-0.2,0.2-0.1,0.2,0c0.1,0.2,0.1,0.3,0.1,0.5
			c4.6-0.1,9.2,0.1,13.8,0.1h0.1c0.2,0,0.3,0.1,0.4,0.2c0,0.2,0,0.3-0.2,0.3c-0.2,0.1-0.4,0.2-0.3,0.4s0.3,0.3,0.5,0.3
			c2.9,0,5.8-0.1,8.7,0.3c0.5,0.1,0.9-0.2,1.4-0.3c0.8-0.1,1.6,0,2.4-0.3c0.3-0.1,0.5-0.2,0.5-0.5c0-0.4,0.2-0.5,0.6-0.5
			c1,0,1.9,0,2.9,0c-1.6-1.2-3.1-2.5-4.7-3.7c-0.5-0.2-1.1-0.3-1.6-0.5c-0.2,0.1-0.4,0.1-0.5-0.1v-0.1c-0.4-0.1-0.8-0.2-1.2-0.4
			c-1.7,0-3.4,0-5.2,0c-0.2,0-0.5,0-0.7-0.1s-0.4-0.1-0.6-0.1c-0.4,0.2-0.8,0.1-1.2,0c-0.4-0.1-0.5-0.3-0.5-0.6
			c0-0.3,0.2-0.4,0.5-0.4c0.7,0,1.4,0,2.1,0c0.6,0,1.1,0,1.7,0c-0.4-0.1-0.9-0.3-1.3-0.4c-0.4,0-0.9,0-1.3-0.1
			c-0.8-0.1-1.5,0.2-2.2,0.2c-3.4,0-6.7,0-10.1,0c-0.2,0-0.5,0.1-0.5-0.2c0-0.3,0.2-0.4,0.5-0.4c0.1,0,0.2,0,0.3-0.1
			c0.1-0.1,0.1-0.1,0.2-0.2c-0.4,0-0.7,0.1-1.1,0.1c-3,0.7-8.4,2.4-13.7,6.7c0.8,0,1.7,0,2.5,0C61.8,34.5,62,34.6,62,35.1z
			 M86.2,30.4c0.1,0,0,0.1,0,0.2c-0.3,0.2-0.5,0-0.8-0.1C85.7,30.2,85.9,30.2,86.2,30.4z M70.2,28.8c0.1,0,0.4-0.1,0.4,0.2
			c0,0.2-0.2,0.3-0.4,0.3c-0.2,0-0.4,0-0.4-0.2C69.8,28.8,70,28.8,70.2,28.8z M64.6,33.5c1.3,0,2.5,0,3.8,0c0.1,0,0.3,0,0.2,0.2
			c0,0.2-0.2,0.1-0.3,0.1c-0.6,0-1.2,0-1.9,0c-0.6,0-1.3,0-1.9,0c-0.1,0-0.2,0-0.2-0.1C64.4,33.5,64.5,33.5,64.6,33.5z"/>
		<path class="st36" d="M73.3,28c-0.2,0-0.5,0.1-0.5,0.4s0.3,0.2,0.5,0.2c3.4,0,6.7,0,10.1,0c0.7,0,1.5-0.3,2.2-0.2
			c0.4,0.1,0.9,0.1,1.3,0.1c-1.6-0.5-3.1-1-4.7-1.4c-2.8,0.2-5.7,0.4-8.5,0.7c-0.1,0.1-0.1,0.1-0.2,0.2C73.5,28,73.4,28,73.3,28z"/>
		<path class="st37" d="M52.2,44.5c0.9-0.3,1.9-0.4,2.8-0.4c1.5,0,3-0.1,4.5-0.1c0.1,0,0.1,0,0.2,0c0.3-0.1,0.5,0,0.7,0.2
			c0.4,0.3,0.9,0.3,1.3,0c0.3-0.2,0.6-0.3,0.9-0.3c0.7,0,1.3,0.2,2,0.1c0.1,0,0.3,0.1,0.4,0.1c0.3,0.2,0.5,0.2,0.8,0
			s0.5-0.2,0.7,0.1c0.3,0.3,1.1,0.3,1.4,0.1c0.3-0.3,0.6-0.2,0.9-0.1l0,0c0.2-0.1,0.4-0.1,0.6-0.2c0.1,0,0.3,0,0.3-0.2
			s-0.1-0.3-0.3-0.3c-0.9,0.1-1.8-0.2-2.7-0.1c-1,0.1-2,0-2.9,0c-0.1,0-0.2,0-0.2-0.2c0-0.1,0.1-0.2,0.2-0.2c0.1,0,0.3,0,0.4,0
			c0.6,0,1.2,0,1.9,0c0.1,0,0.4,0.1,0.4-0.1c0-0.2-0.2-0.2-0.4-0.2c-1.2,0-2.4,0-3.5,0c-0.2,0-0.4,0.1-0.5,0.2
			c-0.3,0.4-0.6,0.3-0.9,0c-0.2-0.2-0.3-0.3-0.6-0.3c-2.5,0.1-5-0.1-7.5-0.2c-0.5,0-1,0-1.5,0c-0.5,0.7-0.9,1.4-1.2,2
			c0.5,0,0.9,0,1.4,0C51.9,44.6,52,44.6,52.2,44.5z"/>
		<path class="st38" d="M56.1,37.8c1-0.1,2,0.2,3-0.3c0.1-0.1,0.3,0,0.4,0c1.9,0,3.8,0,5.7,0c0.4,0,1-0.3,1.1-0.8
			c0.1-0.6,0.5-0.7,1-0.6C67.2,35.9,67,36,66.8,36c-1.4,0-2.8,0-4.2,0c-0.4,0-0.7-0.2-0.6-0.6c0-0.1,0-0.3,0-0.4
			c0.1-0.5-0.1-0.6-0.6-0.6c-0.8,0-1.7,0-2.5,0c-0.1,0-0.1,0.1-0.2,0.1c-1.2,1-2.2,1.9-3.2,2.9C55.6,37.8,55.8,37.8,56.1,37.8z"/>
		<path class="st18" d="M102.5,48.8c-0.1,0-0.2,0-0.2,0.1c0,0.2,0.2,0.2,0.3,0.3l0,0l0,0l0,0l0,0l0,0
			C102.6,49,102.7,48.8,102.5,48.8z"/>
		<path class="st38" d="M69.2,34.2c0-0.1-0.2-0.2-0.2,0c0,0.4-0.4,0.4-0.6,0.6c0.3,0,0.7,0,1,0C69.3,34.5,69.3,34.3,69.2,34.2z"/>
		<path class="st39" d="M108.1,62c-0.7-0.1-1.3-0.4-2-0.1c0,0-0.1,0-0.2-0.1c-0.3-0.1-0.7-0.1-1,0c-0.1,0-0.3,0.1-0.4,0.1
			c-0.6-0.3-1.2-0.1-1.7-0.2c-0.7-0.2-0.9,0.3-1.3,0.6c0.1,0.1,0.2,0.1,0.2,0.2c0,0.1-0.1,0.1-0.2,0.2c-0.1,0-0.3,0-0.3,0.2
			s0.2,0.2,0.3,0.2c0.2,0,0.4,0,0.5-0.3s0.5-0.3,0.5,0c0.1,0.5,0.4,0.4,0.6,0.4c0.7,0,0.9,0.1,1.1,0.8c0.1,0.3,0.3,0.4,0.6,0.4
			c0.1,0,0.3,0,0.4,0c0.2,0,0.4,0,0.4,0.2s-0.2,0.3-0.4,0.3c-0.1,0-0.1,0-0.2,0c-0.5,0-1.1-0.2-1.3,0.5c0,0-0.1,0.1-0.2,0.1
			c-0.3,0-0.6,0.1-1,0.1c0.7,0.4,1.4,0.5,2.1,0.8c0.5,0.2,0.9,0.2,1.4,0.3c1.3,0.1,2.5-0.2,3.8-0.4l0,0c0.8-0.3,1.7-0.5,2.5-0.8
			c0-1,0-2,0-3c-0.2-0.1-0.4-0.2-0.6-0.2C110.6,62.2,109.4,62.1,108.1,62z"/>
		<path class="st40" d="M107.2,68.5c0.1-0.5,0.2-0.9-0.3-1.3c-0.4-0.4-0.4-0.5-1-0.3c0.6,0.5,0.9,1.2,0.8,1.9c0,0.2,0,0.3,0.2,0.4
			c0.3,0.3,0.4,0.6,0.4,1c0.1,0,0.1,0.3,0.2,0.2c0.1-0.2,0-0.3,0-0.5C107.3,69.5,107.1,69,107.2,68.5z"/>
		<path class="st14" d="M100.2,58.9c-0.1,0-0.2,0.1-0.3,0.2c-0.1,0.1-0.3,0-0.3,0.3c0,0.2,0.3,0.1,0.4,0.2c0.1,0,0.2,0,0.3-0.1
			c0.3-0.1,0.4-0.3,0.3-0.5C100.5,58.6,100.3,58.9,100.2,58.9z"/>
		<path class="st36" d="M84.5,28.9c-0.3,0-0.5,0.1-0.5,0.4s0.1,0.5,0.5,0.6s0.8,0.2,1.2,0c0.2-0.1,0.4-0.1,0.6,0.1
			c0.2,0.1,0.4,0.1,0.7,0.1c1.7,0,3.4,0,5.2,0c-1.3-0.4-2.5-0.8-3.8-1.2c-0.6,0-1.1,0-1.7,0C85.9,28.9,85.2,28.9,84.5,28.9z"/>
		<path class="st38" d="M64.6,33.8c0.6,0,1.3,0,1.9,0s1.2,0,1.9,0c0.1,0,0.3,0.1,0.3-0.1c0-0.1-0.1-0.2-0.2-0.2c-1.3,0-2.5,0-3.8,0
			C64.6,33.5,64.4,33.5,64.6,33.8C64.4,33.8,64.5,33.8,64.6,33.8z"/>
		<path class="st36" d="M70.1,29.3c0.2,0,0.4-0.1,0.4-0.3c0-0.3-0.2-0.1-0.4-0.2c-0.2,0-0.4,0-0.4,0.3C69.8,29.2,70,29.3,70.1,29.3z
			"/>
		<path class="st36" d="M86.2,30.6c0.1,0,0.1-0.1,0-0.2c-0.3-0.2-0.5-0.2-0.9,0.1C85.7,30.6,85.9,30.8,86.2,30.6z"/>
		<path class="st36" d="M93.3,30.5c0.2,0.2,0.4,0.1,0.5,0.1c-0.2-0.1-0.4-0.1-0.6-0.2C93.2,30.5,93.2,30.5,93.3,30.5z"/>
	</g>
</g>
<g id="Layer_1_00000091728762646994152810000016681561954055939749_">
	<polygon class="st41" points="74.5,87.8 95.6,72.6 88.2,80.2 71.2,92.9 	"/>
	<g>
		<path class="st42" d="M76.2,86.5c-0.1,0.1-0.2,0.2-0.2,0.3c0,0.1-0.1,0.1-0.1,0.2c-2.5,1.8-5.1,3.4-7.7,4.9c-1,0.6-1.9,1.3-3,1.6
			h-0.1l0,0h0.1c3.6-2.1,7.2-4.2,10.6-6.6C75.9,86.8,76.1,86.6,76.2,86.5z"/>
		<path class="st43" d="M32.3,77.6L32.3,77.6L32.3,77.6L32.3,77.6z"/>
		<path class="st43" d="M77.5,94c0.2-0.2,0.4-0.4,0.4-0.4l-0.1,0.6c-0.5,0.5-1,0.9-1.4,1.4c-0.3,0.2-0.5,0.5-0.8,0.7
			c-4,3.8-8.2,7.5-12.6,10.9c-2.2,1.7-4.5,3.3-6.8,4.9c-0.3,0.2-0.6,0.5-1,0.6l0,0h-0.1c0,0,0,0-0.1,0c-0.7,0.1-1.4,0.4-1.6,1.1v0.1
			l0,0c-0.2,0.3-0.5,0.5-0.8,0.7c-1.7,1.1-3.5,2.1-5.3,3c-1.4,0.7-2.9,1.4-4.3,2.1c-0.3,0.2-0.6,0.4-1,0.3c-2,0.8-4,1.7-6.1,2.3
			c-4.3,1.4-8.6,2.4-13.1,2.3c-2.5,0-5-0.4-7.3-1.4c-4-1.8-6.2-4.8-6.7-9.2c-0.3-2.8,0.2-5.5,0.9-8.2c1.1-4.1,3-7.9,5.1-11.6
			c3.7-6.4,8.1-12.3,13-17.9c1.4-1.6,2.8-3.1,4.2-4.6l0.1-0.1v5.8c-0.3,0.1-0.4,0.4-0.6,0.6c-1.7,1.6-3.3,3.3-4.8,5.1
			c-4.6,5.5-8.5,11.4-11.1,18.2c-1.2,3.1-2.1,6.3-2.1,9.7c0,3.6,1.8,6.3,5,7.5c2.9,1.2,5.9,1.4,9,1.1c4-0.3,7.9-1.5,11.6-3
			c6.3-2.5,12.1-5.9,17.8-9.7c4.6-3.1,9.1-6.4,13.5-10l1,0.2c1.1-0.4,2.2-0.8,3.4-1.2l0,0c0.6-0.2,1.2-0.4,1.8-0.6
			c0,0,0.6-0.7,1.1-1.2C77.4,94.1,77.5,94.1,77.5,94z"/>
		<path class="st43" d="M83.4,87.5c0.5-0.5,0.9-1,1.4-1.5C84.3,86.5,83.8,87,83.4,87.5z"/>
		<path class="st43" d="M88.4,82c0.2-0.3,0.5-0.5,0.7-0.8C88.9,81.4,88.6,81.7,88.4,82z"/>
		<path class="st43" d="M95.1,74.5c-0.1,0.1-0.2,0.2-0.3,0.3C94.9,74.8,95,74.7,95.1,74.5z"/>
		<path class="st43" d="M96.5,72.9C96.5,73,96.5,73,96.5,72.9C96.5,73,96.4,73,96.5,72.9C89.7,80.5,83,88,76.3,95.4
			c-1.7,0.6-3.4,1.2-5.1,1.8l-1-0.2c0,0,0,0,0.1,0l0.6,0.1c1.7-0.6,3.4-1.2,5.1-1.8c5.6-6.2,11.1-12.3,16.7-18.5l0,0
			c1.1-1.1,2.3-2.2,3.3-3.4C96.2,73.2,96.4,73,96.5,72.9z"/>
		<path class="st43" d="M55.1,112.7L55.1,112.7L55.1,112.7c-0.7,0.3-1.2,0.7-1.7,1.1v0.1l0,0v-0.1C53.6,113,54.3,112.8,55.1,112.7
			C55,112.6,55,112.7,55.1,112.7z"/>
		<path class="st43" d="M69.9,96.9l0.3,0.1c-4.4,3.5-8.9,6.9-13.5,10c-5.6,3.8-11.4,7.2-17.8,9.7c-3.8,1.5-7.6,2.6-11.6,3
			c-3.1,0.3-6.1,0-9-1.1c-3.2-1.3-4.9-3.9-5-7.5c0-3.4,0.9-6.6,2.1-9.7c2.6-6.7,6.5-12.6,11.1-18.2c1.5-1.8,3.1-3.5,4.8-5.1
			c0.2-0.2,0.4-0.4,0.6-0.6v0.3l0,0C26,83.5,21.1,90,17.4,97.3c-1.5,3-2.7,6-3.3,9.3c-0.4,1.9-0.6,3.9-0.3,5.8
			c0.3,2.4,1.5,4.2,3.6,5.3c1.5,0.9,3.2,1.2,4.9,1.5c4.7,0.6,9.3-0.3,13.8-1.8c6.1-2.1,11.7-5.1,17.2-8.5
			C59,105.3,64.6,101.2,69.9,96.9z"/>
		<path class="st43" d="M86.7,84.4c0.1,0,0.1-0.1,0.2-0.1C86.8,84.4,86.8,84.5,86.7,84.4c0,0.1,0,0.2,0,0.2S86.7,84.6,86.7,84.4
			L86.7,84.4C86.7,84.5,86.7,84.5,86.7,84.4z"/>
		<path class="st43" d="M88.3,84.1c-0.1,0-0.1,0.1-0.2,0.3c-0.1,0.4-0.2,0.3-0.4,0.1c-0.1-0.1-0.2-0.2-0.3-0.3
			c-0.1-0.1-0.2-0.1-0.2-0.2C87.6,84.1,88,84.1,88.3,84.1z"/>
		<path class="st43" d="M92.7,76.8c1.2-1.3,2.4-2.7,3.7-4c0.1-0.1,0.3-0.3,0.6-0.3c1.7,3.3,3.4,6.6,5.1,10.1c-0.2,0-0.4-0.2-0.5-0.5
			c-0.2-0.3-0.3-0.6-0.5-0.9c-1.3-2.5-2.4-5-3.8-7.5c-0.5-0.9-0.6-0.9-1.3-0.2C94.9,74.6,93.8,75.7,92.7,76.8z"/>
		<path class="st44" d="M41.9,120c1.7-0.9,3.5-1.7,5.2-2.6c0.4,0.1,0.6,0.5,0.9,0.8c3.4,3.9,7.3,7.4,11.9,10
			c4.7,2.7,9.7,4.6,15.2,5.2c7.6,0.8,14.9-0.6,21.8-3.9c4.9-2.3,9.3-5.5,12.9-9.5c5.6-6.2,9-13.5,9.7-21.9c0.1-1.6,0.1-3.1,0.1-4.7
			c0-10.7,0-21.3,0-32c0-0.5-0.3-1.1,0.4-1.5c0.4,0.1,0.7,0.4,1,0.7c0.8,0.8,1.6,1.7,2.3,2.6c0.6,0.7,0.9,1.7,0.6,2.7
			c-0.1,0.3,0,0.6,0,0.9c0,10.2,0,20.3,0,30.5c0,0.3,0.1,0.7-0.1,1c-0.3,5.6-1.7,10.9-4.1,16c-6.2,12.6-16.1,20.7-29.7,24.3
			c-4.7,1.2-9.5,1.5-14.4,1.1c-9.6-0.8-18.1-4.4-25.5-10.5C47,126.4,44.2,123.5,41.9,120z"/>
		<path class="st41" d="M32.3,77.6L32.3,77.6L32.3,77.6L32.3,77.6z"/>
		<path class="st41" d="M65.1,93.5L65.1,93.5c-1,0.6-1.9,1.2-2.9,1.7c-3.3,1.8-6.6,3.6-9.9,5.3c-0.7,0.3-1.4,0.6-2.1,0.9
			c-0.1,0-0.2,0.1-0.3,0.1l0,0c0.2-0.2,0.4-0.3,0.6-0.4c0.4-0.2,0.9-0.4,1.3-0.6c4.1-2,8.1-4.1,12-6.4
			C64.2,93.9,64.6,93.6,65.1,93.5L65.1,93.5z"/>
		<path class="st45" d="M84.6,81c-1.8,1.2-3.6,2.5-5.4,3.7c-0.9,0.6-1.8,1.2-2.7,1.8c-0.2,0.1-0.3,0.2-0.5,0.3
			c-0.1,0-0.2,0.1-0.3,0.1c0.2-0.2,0.3-0.3,0.5-0.4c0.8-0.6,1.7-1.2,2.5-1.8c1.9-1.3,3.7-2.6,5.6-3.8c0,0,0.1,0,0.1-0.1l0,0
			C84.5,80.9,84.5,81,84.6,81z"/>
		<path class="st42" d="M103.9,37.2c-0.4,0.6-0.6,1.2-1.3,1.3c0.1-0.1,0-0.2,0-0.2c0-0.1-0.1-0.2-0.2-0.2V38
			C102.8,37.7,103.2,37.5,103.9,37.2z"/>
		<path class="st41" d="M91.5,76c-0.1,0.4-0.4,0.6-0.7,0.6l0,0l0,0c0-0.1,0.1-0.1,0.1-0.2c0.1-0.1,0.2-0.2,0.3-0.2l0,0
			C91.3,76.2,91.4,76.1,91.5,76z"/>
		<path class="st41" d="M91.6,75.9c0.1-0.2,0.3-0.3,0.6-0.4C92.1,75.8,92,76,91.6,75.9z"/>
		<path class="st46" d="M84.8,80.8c-0.1,0.1-0.1,0.2-0.2,0.2s-0.2,0-0.3-0.1c0,0,0.1,0,0.1-0.1l0,0c0.1-0.1,0.2-0.2,0.3-0.2
			C84.7,80.7,84.8,80.7,84.8,80.8z"/>
	</g>
	<path class="st43" d="M96.4,73.1c-0.1,0.1-0.6,0.6-1.3,1.5c-0.1,0.1-0.2,0.2-0.3,0.3c-1.2,1.4-3.2,3.5-5.7,6.3
		c-0.2,0.3-0.5,0.5-0.7,0.8c-1.1,1.2-2.3,2.6-3.7,4.1c-0.4,0.5-0.9,1-1.4,1.5c-1.7,1.9-3.5,3.9-5.5,6.1l0,0l0,0c0,0-0.2,0.2-0.4,0.4
		c-0.1,0.1-0.1,0.1-0.1,0.1c-0.1,0.2-0.5,0.5-1.2,1.2c-0.3,0.1-0.5,0.2-0.8,0.3c-0.3,0.1-0.6,0.2-0.9,0.3l0,0
		c-0.3,0.1-0.5,0.2-0.8,0.3c-0.9,0.3-1.7,0.6-2.6,0.9L70,97c0,0,0,0,0.1,0c0.8-0.7,1.7-1.3,2.5-2c0,0,1.3-1,2.5-2.1
		c5-4.2,14.2-13.1,17.4-16l0,0C93.1,76.4,94.6,75,96.4,73.1C96.3,73.1,96.4,73.1,96.4,73.1z"/>
	<path class="st43" d="M96.5,72.9L96.5,72.9L96.5,72.9L96.5,72.9z"/>
	
		<image style="display:none;overflow:visible;enable-background:new    ;" width="66" height="75" xlink:href="798EF284F4A1A5F2.png"  transform="matrix(0.9848 0 0 0.9848 14.6404 54.9275)">
	</image>
	<path class="st43" d="M101.2,64.8c0.1,0-2.9,5.2-4.7,8.1c0,0,0,0.1-0.1,0.1C83.2,94.6,63,107.7,56.9,111.6
		c-0.6,0.4-1.2,0.8-1.8,1.1l-0.1-0.1l0,0c-0.7,0.1-1.4,0.4-1.6,1.1v0.1l0,0l0,0c-1.6,1-3,1.8-4.2,2.4l-0.9-1.5l-0.2-2.4l-0.2-1.8
		l35.5-25.1L94,74.3c1-0.9,1.9-1.8,2.9-2.8C98.8,68.5,101.1,64.8,101.2,64.8z"/>
	<g>
		<path class="st47" d="M32.3,77.5C32.3,77.6,32.3,77.6,32.3,77.5C32.3,77.6,32.3,77.6,32.3,77.5C32.3,77.6,32.3,77.6,32.3,77.5z"/>
		<path d="M95.6,72.6c0.1,0.1-2.5,2.3-5,4.3c-0.2,0.2-0.4,0.4-0.6,0.5C83.3,83.2,76.6,89,69.9,94.8c-4.3,1.9-8.5,3.8-12.8,5.8
			c-0.2,0.1-0.5,0.3-0.7,0.4c-5.2,3.2-10.6,6.2-16.3,8.7c-3,1.3-6,2.4-9.2,3c-1.9,0.3-3.8,0.5-5.7,0.1c-0.9-0.2-1.8-0.5-2.5-1.1
			c-1.2-0.9-1.9-2.1-2-3.7c-0.1-1.7,0.2-3.4,0.7-5c1-3.3,2.7-6.4,4.6-9.4c1.7-2.7,3.7-5.3,5.9-7.6l0,0c0,0,0,0,0.1-0.1v8.6
			c-1.4,2.1-2.8,4.2-3.6,6.6c-0.2,0.6-0.4,1.1-0.4,1.7c0,0.1,0,0.1,0,0.2s0,0.1,0,0.2s0,0.1,0,0.2s0,0.2,0,0.2c0,1,0.2,1.7,0.5,2.1
			c1,1.5,3.5,1.7,6.9,1.1c0.1,0,0.2,0,0.2,0h0.1c1.5-0.3,3.1-0.7,4.8-1.2c0,0,0.1,0,0.1-0.1c2.1-0.6,4.1-1.4,6.1-2.3
			c0.2-0.1,0.5-0.2,0.5-0.5c0.1,0.1,0.1,0.1,0.2,0.1c0.6-0.3,1.1-0.6,1.7-0.9c14.6-7.4,25.3-14.3,28.8-16.6
			C88.4,78.2,95.4,72.4,95.6,72.6z"/>
		<path class="st44" d="M130.9,46.9c-0.6,0.6-0.9,1.2-0.9,2c0.1,3,0.2,6.1,0.3,9.1c0.3,0.2,0.3-0.1,0.5-0.2c0.6-0.2,1.1-0.1,1.4,0.3
			c0.3,0.4,0.3,0.9-0.1,1.4c-0.4,0.6-0.9,1.1-1.4,1.6c-0.2,0.2-0.3,0.5-0.3,0.8c0.1,2.2,0.1,4.4,0.2,6.5c0.2,0.2,0.4-0.1,0.6-0.1
			c0.6-0.1,1,0,1.3,0.5s0.3,0.9-0.1,1.4c-0.4,0.5-0.8,1-1.3,1.4c-0.3,0.3-0.4,0.6-0.4,1.1c0.1,2.6,0.1,5.2,0.2,7.7
			c0,0.7-0.2,1.2-0.7,1.6c-0.6,0.5-1.1,1-1.7,1.5c-0.3-0.2-0.3-0.5-0.3-0.8c-1.2-5-2.3-10-3.5-15c-0.4-0.5-0.3-1.2-0.7-2V67
			c0,9.5,0,19.1,0,28.6c0,0.9,0.1,1.7-0.2,2.6c-0.1-0.9,0-1.8,0-2.7V66.6c0-0.9,0.2-1.7-0.2-2.6c-0.1-0.2-0.2-0.5-0.3-0.7
			c-1.1-1.1-2.1-2.3-3.2-3.4c-0.1-0.1-0.2-0.1-0.2-0.1c-0.5-0.3-0.7-1.1-1.3-1c-0.5,0.1-1,0.5-1.5,0.7c-0.6,0.2-1,0.8-1.7,0.8l0,0
			c-0.1,0.1-0.1,0.1-0.2,0.2c-2.2,1.8-2,1-2,4.2c0,9.3,0,18.7,0,28c0,4.6-1,9-2.9,13.1c-3,6.6-7.6,11.7-13.8,15.4
			c-4.4,2.6-9.1,4.1-14.2,4.6c-5.3,0.5-10.5-0.2-15.5-2.1c-3.9-1.5-7.4-3.6-10.5-6.5c-1.1-1-2.3-2-3.1-3.3c0.6-0.3,1.2-0.7,1.8-1.1
			c5.8,6.7,14.4,11,24,11c10,0,18.8-4.6,24.6-11.7l0,0c0,0,0,0,0.1-0.1s0.1-0.1,0.2-0.2l0,0c0.7-0.9,1.4-1.9,2-2.9
			c0.3-0.3,0.5-0.7,0.8-1.2c0.8-1.6,1.7-3.2,2.3-4.9c0.1-0.4,0.2-0.7,0.2-1c0.2-0.6,0.4-1.2,0.5-1.8c0.2,0,0.2-0.3,0.4-0.8
			c0.6-2.3,0.9-4.6,0.9-6.9V65.2c0-0.4,0-0.8-0.1-1.1c-0.3-0.1-0.5,0.1-0.7,0.3c-2.2,1.7-4.3,3.4-6.5,5.1c-0.6,0.5-0.8,1.1-0.7,1.9
			c0,0.2,0,0.4,0.1,0.7c0.2,2.2,0.3,4.5,0.5,6.8c0,0.3,0,0.6,0,0.8c0.4,1.2-0.3,1.9-1.1,2.6c-0.2,0.2-0.4,0.2-0.5,0.2l0,0
			c-0.2,0-0.4-0.2-0.5-0.5c-0.2-0.3-0.3-0.6-0.5-0.9c-1.3-2.5-2.4-5-3.8-7.5c-0.3-0.5-0.5-0.8-0.7-0.7c-0.1,0.1-0.3,0.2-0.5,0.5
			c-1,1.2-2.1,2.3-3.3,3.4c-0.6,0.6-1.2,1.2-1.9,1.8c-5.3,5.2-10.8,10.2-16.5,15c-1.3,1.1-2.7,2.3-4.1,3.4c-4.4,3.5-8.9,6.9-13.5,10
			c-1.3,0.9-2.7,1.7-4,2.6c-1.5,1-3.1,1.9-4.7,2.8c-2.9,1.6-5.9,3.1-9.1,4.3c-3.8,1.5-7.6,2.6-11.6,3c-3.1,0.3-6.1,0-9-1.1
			c-3.2-1.3-4.9-3.9-5-7.5c0-3.4,0.9-6.6,2.1-9.7c2.6-6.7,6.5-12.6,11.1-18.1c1.5-1.8,3.1-3.5,4.8-5.1c0.2-0.2,0.4-0.4,0.6-0.5v8.4
			c0,0,0,0.1-0.1,0.1c-0.3,0.7-0.8,1.4-1.4,2c-3.6,4-6.3,8.5-8.3,13.5c-0.8,2-1.3,4.1-1.2,6.3c0.1,2.2,1.2,3.7,3.2,4.5
			c2.3,0.8,4.7,0.6,7,0.2c3.9-0.8,7.5-2.2,11.1-3.9c1.8-0.8,3.5-1.7,5.3-2.6c0.8-0.5,1.7-1,2.5-1.5c1.3-0.8,2.6-1.6,4-2.4
			c9.6-5.8,19.5-12.4,29.5-19.9c1.8-1.3,3.5-2.6,5.2-3.9c0.7-0.6,1.4-1.2,1.9-1.6c0.6-0.5,1-0.8,1-0.8s0.7-0.6,1.3-1
			c0.9-0.8,1.9-1.5,2.9-2.2c0.5-0.4,0.4-0.6-0.1-1c-2.6-1.6-5.2-3.2-7.8-4.9c-0.4-0.3-1.1-0.4-1-1.1c0.1-0.5,1.3-1.5,1.9-1.5
			c0.4,0,0.8,0.1,1.2,0.1c1.7,0.3,3.4,0.6,5.1,0.8c1.2,0.2,2.4,0.4,3.7,0.6c0.6,0.1,1.1,0,1.5-0.5c2.1-2.2,4-4.4,6.1-6.6
			c1.3-1.4,2.5-2.8,3.8-4.1c0.1-0.1,0.2-0.2,0.4-0.4c0.1-0.3,0.3-0.5,0.4-0.8c0.1-0.5,0.4-1,0.7-1.4c0.3-0.5,0.3-0.9-0.1-1.3
			c-0.8-0.7-1.5-1.6-2.1-2.5c-0.5-0.6-1.1-1.2-1.6-1.8c-0.3-0.3-0.7-0.5-1.1-0.6c-0.8-0.4-1.7-0.6-2.5-1c-0.3-0.1-0.6-0.1-0.9-0.2
			c-4.7-1.6-9.4-3-14.1-4.5c-0.4-0.1-0.8-0.2-0.9-0.7c-0.1-0.4,0.4-0.6,0.6-0.9c1.2-1.6,2.7-1.8,4.6-1.5c3.1,0.5,6.2,0.8,9.2,1.2
			c0.1,0,0-0.2-0.1-0.2c-1-0.6-1.7-1.6-2.6-2.3c-5-4.1-10.6-6.5-17-7.2c-4.7-0.5-9.4,0-13.9,1.6c-4.4,1.6-8.4,4-11.7,7.3
			c-3.6,3.6-6.3,7.7-7.9,12.5c-0.1,0.4-0.3,0.8-0.4,1.3C48.4,54.1,47.8,57,48,60c0,1.2,0,2.4,0,3.6c0,0.7,0,1.3,0,2
			c0,9.6,0,19.2,0,28.8c0,1.2,0.3,2.4,0.5,3.6l0.1,0.5l0.8,3.2l0.1,0.3c-0.6,0.3-1.1,0.6-1.7,0.9c0,0-0.1,0-0.1,0.1
			c0,0-0.1,0-0.1-0.1c0,0-0.1,0-0.1-0.1c0,0,0-0.1-0.1-0.1c-1-2.7-1.6-5.5-1.6-8.3c0-12.2-0.1-24.5,0-36.7c0-4.2,1.2-8.1,2.9-11.9
			c3-6.5,7.5-11.5,13.6-15.1c3.7-2.7,8.2-4.2,13-4.7c7.6-0.8,14.7,0.6,21.3,4.5c2.4,1.4,4.7,3.1,6.6,5.1c0.5,0.5,1,0.9,1.8,0.7
			c0.9-0.2,1.5,0.5,1.4,1.5c-0.1,0.6,0.2,0.9,0.7,0.9c0.1,0,0.3,0,0.5,0.1c1.4,0.4,2.6,0.1,3.3-1.2c0.2-0.3,0.5-0.5,0.9-0.7
			c0.5-0.3,1-0.2,1.5,0.1c0.5,0.4,0.6,0.9,0.4,1.5c-0.3,1-0.3,1,0.7,1.1c0.2,0,0.4,0.1,0.6,0c-0.1-0.5-0.4-1-0.7-1.4
			c-3.8-6.4-9.1-11.3-15.7-14.7c-4.8-2.5-9.9-3.9-15.3-4.4c-10.8-1-20.3,2.1-28.6,8.8C47.2,33.6,42.2,41.1,40,50.4
			c-0.6,2.6-0.9,5.2-0.9,7.9c0,4,0,8,0,12c0,8.2,0,16.4,0,24.6c0,0.8,0,1.6,0.1,2.3l0,0c0.2,2.2,0.5,4.4,1.1,6.6
			c0.1,0.5,0.3,0.9,0.3,1.4l-0.1,0.1c0,0-0.1,0-0.1,0.1c-1.7,0.5-3.3,1-4.8,1.2h-0.1l-0.1-0.1c-0.9-3-1.4-6.1-1.7-9.2
			c-0.1-1.6-0.2-3.3-0.2-5c0-7.3,0-14.7,0-22c0-3.1,0-6.1,0-9.2c0-5.6,0.8-11.1,2.7-16.4c5.4-15.2,18.4-26.5,34.2-29.8
			c9.5-1.9,18.8-1.1,27.7,3c10,4.6,17.2,12,21.9,21.9c0.3,0.7,0.7,0.9,1.4,1c0.4,0,0.9,0.1,1.3,0.2c0.8,0.1,1.4-0.1,1.9-0.6
			c2.9-2.8,5.8-5.7,8.7-8.4c1.9-1.8,4.3-2.2,6.8-1.9c1.4,0.2,2.2,1.3,2.2,2.7c-0.1,2.4-0.9,4.6-2.7,6.3
			C136.7,41.7,133.8,44.3,130.9,46.9z"/>
	</g>
	<path class="st48" d="M53.3,113.8L53.3,113.8L53.3,113.8L53.3,113.8c0.3-0.8,1-1.1,1.7-1.2l0,0l0.1,0.1
		C54.5,113.1,53.9,113.5,53.3,113.8z"/>
	<path class="st41" d="M32.3,77.6L32.3,77.6L32.3,77.6L32.3,77.6z"/>
	<g>
		<path class="st43" d="M163.6,101.7c-3.5,0-7-0.4-10.2-1.3c-3.3-0.9-6.2-2.2-8.8-3.9c-2.6-1.7-4.7-3.9-6.2-6.5s-2.3-5.7-2.3-9.2
			c0-2.6,0.5-5.4,1.4-8.3c0.5-1.7,1.3-3.1,2.3-4.3c1-1.2,2.1-2.1,3.1-2.7c1.1-0.6,1.9-1,2.6-1c0.8,0,1.2,0.4,1,1.2
			c-0.3,0.3-0.8,0.8-1.5,1.2c-0.7,0.5-1.5,1.1-2.3,1.8s-1.6,1.7-2.3,2.8c-0.7,1.2-1.2,2.6-1.5,4.4c-0.1,0.6-0.2,1.3-0.3,1.9
			s-0.1,1.3-0.1,1.8c0,3.2,0.7,6,2.1,8.5c1.4,2.5,3.2,4.5,5.4,6.1s4.7,2.8,7.4,3.7c2.7,0.8,5.3,1.2,7.9,1.1c4-0.1,7.5-0.7,10.6-1.7
			s5.8-2.3,8.3-4c2.4-1.7,4.5-3.5,6.3-5.5c1.5-1.7,3-3.7,4.6-6.1c1.5-2.4,3-5,4.5-7.8c1.4-2.8,2.8-5.5,4.1-8.3
			c1.3-2.8,2.5-5.4,3.6-7.8c1.1-2.5,2.1-4.6,2.9-6.3c0.8-1.7,1.5-3,2.1-3.6c-3.9-1.2-7.6-2.1-11.2-2.8c-3.6-0.7-7.4-1.1-11.4-1.3
			c-3.7-0.2-7,0.2-9.8,1.3c-2.9,1-5.3,2.4-7.3,4.2c-2,1.7-3.5,3.7-4.6,5.7c-1.1,2.1-1.6,4.1-1.6,6c0,1.7,0.4,3.2,1.3,4.5
			c0.9,1.3,2.2,2.2,3.9,2.8c1.2,0.3,2.3,0.5,3.5,0.5c1.8,0,3.3-0.4,4.6-1.1s2.4-1.6,3.4-2.7c0.9-1.1,1.6-2.1,2.1-3
			c0.5-1,0.7-1.7,0.7-2.1v-0.1c0.2-0.3,0.5-0.4,0.7-0.4c0.5,0,0.7,0.3,0.7,1c-0.2,2.1-1,4-2.2,5.5c-1.3,1.6-2.8,2.8-4.5,3.6
			c-1.8,0.8-3.6,1.3-5.6,1.3c-1.4,0-2.7-0.2-4-0.7c-2.7-1-4.7-2.6-6.1-4.8c-1.4-2.2-2.1-4.6-2.1-7.1c0-2.2,0.5-4.3,1.4-6.5
			c0.9-2.1,2.4-4.1,4.3-5.9c1.9-1.8,4.3-3.2,7.2-4.3s6.2-1.6,10-1.6c0.6,0,1.2,0,1.5,0c0.4,0,1.1,0,2,0.1c2.3,0.2,4.6,0.6,7,1.1
			c2.4,0.6,4.6,1.2,6.8,1.9s4.2,1.4,6,2s3.3,1.1,4.5,1.4c0.1-0.2,0.6-0.5,1.3-1s1.4-1,2.2-1.5s1.4-1,1.8-1.4
			c0.4-0.4,0.5-0.6,0.1-0.6h-0.1c0.1,0,0.3-0.1,0.6-0.1c0.5,0,0.9,0.2,1.1,0.5c0.2,0.3,0.4,0.7,0.4,1c0,0.6-0.3,1-0.9,1
			c-0.1,0-0.3,0-0.6-0.1c-0.2-0.2-0.6-0.1-1.1,0.3s-1,0.8-1.5,1.4c-0.5,0.5-0.9,0.9-1.2,1.3c1.1,0.3,2.4,0.8,4.1,1.2
			c1.6,0.5,3.4,0.9,5.3,1.4c1.9,0.5,3.7,0.8,5.6,1.1c1.8,0.3,3.4,0.4,4.9,0.4c1.4,0,2.5-0.2,3.3-0.5s1.2-0.9,1.2-1.7
			c0-0.3,0.1-0.6,0.2-0.8c0.1-0.2,0.4-0.3,0.7-0.3c0.2,0,0.4,0.2,0.5,0.6c0.1,0.4,0.1,0.8,0.1,1c0,1.2-0.6,2.1-1.9,2.9
			c-1.3,0.7-2.8,1.1-4.7,1.1c-0.3,0-0.6,0-0.9,0c-0.3,0-0.6-0.1-1-0.1c-5.5-0.7-9.8-1.6-12.9-2.7c-3.1-1.1-5-1.8-5.8-2.1
			c-2.2,3.5-4,7.2-5.5,10.9c-1.4,3.7-2.8,7.5-4,11.2c-1.3,3.7-2.7,7.3-4.4,10.8c-1.6,3.5-3.8,6.8-6.5,9.9c-2,2.2-4.4,4.1-7.2,5.6
			s-5.9,2.7-9.2,3.4C170.3,101.3,167,101.7,163.6,101.7z"/>
		<path class="st43" d="M214.6,94.9c-0.9,0-1.9-0.4-2.8-1.1c-0.9-0.8-1.4-2-1.4-3.7c0-1.3,0.3-2.9,1-4.6c0.6-1.7,1.4-3.3,2.4-4.9
			s1.7-2.8,2.2-3.8c0.1-0.4,0.2-0.7,0.2-1c0-0.9-0.6-1.5-1.7-1.9c-1.1-0.4-2.5-0.6-4.3-0.7l-0.9,2.4c-0.5,1.6-1.3,3.4-2.2,5.5
			c-1,2.1-2,4.2-3.2,6.1c-1.2,2-2.3,3.5-3.6,4.7c-0.1,0.1-0.2,0.1-0.4,0.1s-0.3-0.1-0.4-0.4s0-0.5,0.3-0.9c1.9-2.6,3.6-5.4,5.2-8.5
			c1.5-3.1,2.8-6.3,3.9-9.5c1.1-3.2,1.8-6.2,2.3-9c0.1-0.8,0.4-1.4,0.8-1.7c0.4-0.4,0.8-0.6,1.3-0.6c0.6,0,1.2,0.3,1.8,0.9
			c0.5,0.6,0.8,1.5,0.8,2.6c0,0.2,0,0.4,0,0.7c0,0.2-0.1,0.5-0.1,0.7c-0.2,1-0.8,2-1.7,2.9c-1,0.9-1.7,1.6-2.3,2
			c0.5,0,1,0.1,1.5,0.1s1.1,0,1.8,0c2.3,0,4.6-0.1,6.9-0.4c0.1,0.3,0.1,0.5,0.1,0.7c0,0.6-0.2,1.5-0.6,2.4c-0.4,1-0.8,1.9-1.1,2.7
			c-0.2,0.4-0.6,1.2-1.2,2.4c-0.6,1.2-1.2,2.5-1.9,3.9c-0.7,1.5-1.3,2.9-1.7,4.3c-0.5,1.4-0.7,2.6-0.7,3.6c0,1.3,0.5,1.9,1.5,1.9
			c0.7,0,1.5-0.5,2.4-1.4c0.9-1,1.8-2.1,2.6-3.5c0.9-1.4,1.6-2.8,2.4-4.1c0.7-1.4,1.3-2.4,1.7-3.2c0.2-0.5,0.5-0.7,0.8-0.7
			c0.2,0,0.3,0.2,0.3,0.5c0,0.2-0.1,0.5-0.2,0.9c-0.5,1.1-1.2,2.4-1.9,3.8s-1.6,2.8-2.5,4.2c-0.9,1.4-1.9,2.6-2.9,3.6
			c-1.1,1-2.2,1.7-3.4,2C215.3,94.8,215,94.9,214.6,94.9z"/>
		<path class="st43" d="M241,95c-0.5,0-1.2-0.1-1.8-0.4c-0.7-0.3-1.3-0.8-1.8-1.6c-0.5-0.8-0.8-1.9-0.8-3.3c0-1.2,0.2-2.6,0.7-4.3
			c-0.6,0.9-1.4,2.1-2.3,3.4c-0.9,1.4-1.9,2.5-3,3.6c-0.9,0.9-1.8,1.5-2.7,1.9c-0.8,0.4-1.6,0.6-2.3,0.6c-1.3,0-2.3-0.6-3.1-1.7
			c-0.8-1.2-1.2-2.7-1.2-4.5c0-2,0.5-4.2,1.5-6.7s2.6-5.1,4.8-7.8c1.4-1.7,3.2-3.1,5.2-4.2s4-1.6,6-1.6c1.1,0,2.2,0.2,3.2,0.6
			s1.9,1,2.7,1.8c0.3,0.3,0.5,0.7,0.5,1.2c0,0.3-0.1,0.5-0.4,0.7c-0.2,0.2-0.6,0.2-1,0.1c-0.5-1.7-1.7-2.6-3.5-2.6
			c-0.8,0-1.8,0.3-2.9,0.8c-1.7,0.9-3.4,2.3-5.2,4.4c-1.8,2-3.4,4.1-4.7,6.3c-0.2,0.3-0.5,0.9-0.9,1.7c-0.4,0.8-0.8,1.8-1.2,2.8
			s-0.7,2-0.8,3c0,0.3-0.1,0.5-0.1,0.6s0,0.3,0,0.6c0,1.6,0.6,2.4,1.8,2.4c1.5,0,3.1-1.1,5-3.2c1.3-1.6,2.4-3.2,3.5-4.9
			c1-1.7,2.1-3.6,3.2-5.5c0.7-1.3,1.4-2.4,2.1-3.3c0.6-0.9,1.5-1.3,2.7-1.3c0.5,0,1.1,0.1,1.6,0.2s1.1,0.2,1.7,0.1
			c-0.4,0.4-0.9,1.1-1.6,2.2c-0.7,1.1-1.4,2.3-2.1,3.7c-0.7,1.4-1.4,2.8-2,4.2c-0.6,1.4-1,2.7-1.3,3.7c0,0.3-0.1,0.7-0.2,1.3
			s-0.1,0.9-0.1,1.2c0,1.4,0.4,2.1,1.2,2.1s1.6-0.5,2.5-1.4s1.8-2.1,2.7-3.5s1.7-2.8,2.4-4.2c0.7-1.4,1.3-2.5,1.8-3.4
			c0.2-0.5,0.5-0.7,0.9-0.7c0.2,0,0.4,0.2,0.4,0.5c0,0.1-0.1,0.4-0.2,0.8c-0.6,1.2-1.3,2.6-2.1,4.2c-0.8,1.5-1.7,3-2.7,4.5
			s-2,2.7-3.1,3.6C243.2,94.4,242.1,94.9,241,95z"/>
		<path class="st43" d="M253.7,95.3c-1.5,0-2.6-0.4-3.2-1.2c-0.6-0.8-0.9-1.8-0.9-3c0-1.3,0.2-2.7,0.7-4.4c0.5-1.6,1-3.2,1.5-4.8
			c-0.3,0.5-0.7,0.7-1,0.7c-0.2,0-0.3-0.1-0.4-0.3c-0.1-0.2-0.1-0.4,0.1-0.7c0.2-0.4,0.5-0.9,0.7-1.3s0.5-0.8,0.7-1.3
			c0.4-0.8,0.7-1.8,1-3s0.4-2.2,0.4-3.2c0-0.8-0.1-1.4-0.3-2c-0.2-0.5-0.5-0.9-0.9-1c1-0.2,1.8-0.3,2.4-0.4c0.6-0.1,1-0.1,1.2-0.1
			c0.3,0,0.6-0.1,0.8-0.1s0.5,0,0.7,0c0.5,0,0.8,0.2,1,0.6s0.2,1.3,0.2,2.6c0,1.2-0.3,2.7-0.7,4.5c-0.4,1.7-0.9,3.3-1.4,4.5
			c-0.6,1.7-1.2,3.4-1.8,5.1c-0.5,1.7-0.8,3.1-0.8,4.3c0,1,0.3,1.6,0.8,1.9c0.4,0.1,0.7,0.2,1,0.2c1.1,0,2.2-0.6,3.4-1.7
			c1.1-1.1,2.2-2.6,3.2-4.5s2-3.9,2.9-6.1c-0.3-0.7-0.6-1.4-0.7-2.3c-0.1-0.8-0.2-1.6-0.2-2.4c0-0.9,0.1-1.8,0.4-2.7
			c0.6-2,1.4-3.4,2.5-4.2c1.1-0.9,2-1.3,2.7-1.3c0.9,0,1.4,0.4,1.4,1.3c0,0.2-0.1,0.5-0.2,0.9c-0.1,0.1-0.1,0.2-0.1,0.4
			c-0.3,1-0.8,2.5-1.5,4.5s-1.5,4.1-2.4,6.5s-2.1,4.6-3.4,6.7s-2.7,3.9-4.3,5.3C257.3,94.6,255.6,95.3,253.7,95.3z"/>
		<path class="st43" d="M275.7,95.1c-1.8,0-3.5-0.6-4.9-1.8c-1.5-1.2-2.2-3-2.2-5.4c0-2.2,0.5-4.6,1.6-7.1s2.5-4.8,4.1-6.7
			c1.4-1.7,3-3,4.8-4.1s3.4-1.6,5-1.6c1.1,0,2,0.3,2.8,0.9s1.3,1.5,1.3,2.7s-0.5,2.6-1.4,4.1s-2.3,2.9-4,4.1
			c-0.7,0.5-1.7,1.1-2.8,1.5c-1.1,0.5-2.3,0.9-3.4,1.2c-1.1,0.3-2.1,0.5-2.8,0.5c-0.2,0.6-0.5,1.4-0.7,2.4s-0.3,2-0.3,3
			c0,1.2,0.2,2.3,0.7,3.3s1.4,1.5,2.7,1.5c1.6,0,3.1-0.5,4.4-1.4s2.5-2.1,3.5-3.5s1.9-2.8,2.6-4.2c0.7-1.4,1.3-2.6,1.7-3.6
			c0.3-0.7,0.7-1,1.2-1c0.2,0,0.4,0.1,0.4,0.4c0,0.2-0.1,0.4-0.2,0.7c-0.7,1.5-1.4,3-2.2,4.7c-0.8,1.6-1.7,3.2-2.8,4.6
			c-1.1,1.5-2.4,2.6-3.9,3.5C279.6,94.6,277.8,95.1,275.7,95.1z M274.4,82.1c0.7,0,1.8-0.3,3.5-0.8c1.6-0.5,3.1-1.3,4.4-2.5
			c1.3-1.1,2.3-2.4,2.9-3.7c0.7-1.4,1-2.5,1-3.4c0-1.1-0.4-1.6-1.2-1.6c-0.6,0-1.4,0.4-2.4,1.2s-2.3,2.1-3.8,4
			c-0.9,1.2-1.8,2.5-2.7,3.8C275.3,80.5,274.8,81.5,274.4,82.1z"/>
		<path class="st43" d="M292.5,95c-2.1,0-3.5-0.6-4.2-1.7s-1.1-2.4-1.1-3.9c0-1.6,0.2-3.2,0.7-4.9c0.4-1.7,0.8-3.1,1.2-4.2
			c0.8-2.8,1.8-5.7,3-8.8c1.2-3.1,2.5-6.2,4-9.2c1.4-3,2.9-5.7,4.3-8.1c1.1-1.9,2.3-3.4,3.7-4.3c1.3-1,2.4-1.4,3.4-1.4
			c0.8,0,1.4,0.3,1.9,0.8c0.5,0.6,0.7,1.4,0.7,2.5c0,0.8-0.1,1.7-0.4,2.8s-0.7,2.3-1.4,3.7c-1.7,3.8-3.8,7.7-6.2,11.5
			c-2.4,3.8-5.4,7.4-9,10.8c-0.2,0.6-0.5,1.4-0.8,2.2c-0.3,0.9-0.6,1.7-0.8,2.6c-0.3,1.3-0.4,2.5-0.4,3.4c0,1.5,0.3,2.7,0.9,3.4
			c0.6,0.8,1.4,1.1,2.2,1.1c0.8,0,1.6-0.3,2.5-0.8c0.9-0.6,1.7-1.4,2.5-2.5c1.2-1.7,2.2-3.5,3.2-5.3s1.7-3.2,2.2-4.2
			c0.3-0.5,0.6-0.8,1-0.8c0.2,0,0.4,0.1,0.4,0.4c0,0.2-0.1,0.5-0.2,0.8c-0.4,1-1,2.2-1.7,3.8c-0.7,1.5-1.6,3.1-2.7,4.6
			s-2.3,2.9-3.8,3.9C296,94.5,294.3,95,292.5,95z M293.6,78.2c1.8-1.8,3.5-3.9,5.2-6.3s3.2-4.9,4.7-7.4c1.4-2.6,2.7-5,3.7-7.3
			c0.3-0.7,0.6-1.5,0.8-2.4c0.2-0.9,0.3-1.6,0.3-2.2c0-0.7-0.2-1-0.5-1c-0.2,0-0.5,0.2-0.9,0.6c-0.4,0.4-0.9,1-1.5,1.9
			c-0.9,1.2-2,2.9-3.1,5s-2.2,4.4-3.4,6.8c-1.1,2.4-2.2,4.7-3.1,7C294.9,74.9,294.1,76.7,293.6,78.2z"/>
		<path class="st43" d="M306.8,94.8c-1.8,0-3.1-0.5-3.8-1.6c-0.7-1.1-1.1-2.3-1.1-3.7c0-0.7,0.1-1.5,0.3-2.2
			c0.2-0.8,0.4-1.5,0.6-2.1l4.9-12.6c0.1-0.4,0.2-0.7,0.2-1c0-0.5-0.1-0.9-0.4-1.3c-0.2-0.4-0.4-0.6-0.5-0.8l4.1-0.1
			c0.7,0,1.3,0,1.6,0.3c0.3,0.2,0.5,0.5,0.5,0.8s-0.2,0.8-0.5,1.6l-6.1,14.4c-0.5,1.2-0.8,1.9-0.9,2.1c-0.1,0.7-0.2,1.2-0.3,1.4
			c0,0.2-0.1,0.3-0.1,0.4c0,0,0,0.2,0,0.6c0,0.6,0.2,1.2,0.5,1.6s0.9,0.7,1.7,0.7c0.5,0,1.1-0.1,1.7-0.4s1.1-0.6,1.4-0.9
			c1.2-1.3,2.4-3,3.7-5.1c1.2-2.1,2.3-4.2,3.4-6.2c0.2-0.5,0.4-0.7,0.7-0.7c0.2,0,0.4,0.2,0.4,0.5c0,0.2-0.1,0.5-0.2,0.9
			c-0.5,1-1.1,2.3-1.8,3.8c-0.7,1.5-1.6,3-2.6,4.5s-2.1,2.7-3.3,3.7C309.4,94.3,308.2,94.8,306.8,94.8z M312.8,64.9
			c-0.7,0-1.3-0.3-1.8-0.8s-0.7-1.1-0.7-1.9c0-0.9,0.4-1.7,1.1-2.4s1.5-1,2.4-1c0.8,0,1.4,0.2,1.9,0.7s0.7,1.1,0.7,1.8
			c0,0.9-0.4,1.8-1.1,2.5C314.6,64.5,313.7,64.9,312.8,64.9z"/>
		<path class="st43" d="M310.5,95.4c1.8-3.6,3.5-7.1,5.1-10.7c1.6-3.5,3.3-6.9,5.1-10.1c1-1.8,1.8-3,2.5-3.7s1.6-1.1,2.7-1.1
			c0.4,0,0.8,0.1,1.3,0.2c0.4,0.1,0.9,0.2,1.3,0.2c0.3,0,0.5,0,0.7-0.1c-0.7,0.4-1.6,1.4-2.7,2.9s-2.2,3.3-3.3,5.3
			c-1.1,2-2.1,3.9-3,5.7c0.9-1.1,1.9-2.3,2.9-3.4s2.1-2.2,3.4-3.2c1.2-1,2.6-2.1,4.2-3.2s3.3-2,4.8-2.8s2.8-1.1,3.8-1.1
			c0.3,0,0.6,0,0.7,0.1c-1.1,1.9-2,3.7-2.8,5.2s-1.6,3.2-2.5,4.9c-0.8,1.7-1.6,3.4-2.2,5c-0.7,1.6-1.1,2.9-1.3,4
			c-0.1,0.6-0.2,1.2-0.2,1.8c0,0.8,0.1,1.3,0.4,1.5s0.6,0.4,1,0.4c0.9,0,1.9-0.5,2.9-1.5s2-2.2,3-3.7s1.8-2.9,2.6-4.3
			c0.8-1.4,1.3-2.5,1.7-3.2c0.2-0.4,0.3-0.6,0.4-0.7s0.2-0.1,0.4-0.1c0.3,0,0.4,0.2,0.4,0.6c0,0.2-0.1,0.5-0.2,0.8
			c-0.6,1.1-1.3,2.5-2.1,4.1c-0.8,1.6-1.7,3.1-2.8,4.6c-1,1.5-2.2,2.8-3.4,3.8c-1.2,1-2.6,1.5-4,1.5c-1,0-2-0.3-3.1-1
			s-1.6-2-1.6-3.8c0-0.5,0-1.1,0.1-1.7s0.3-1.3,0.5-2c0.4-1,0.9-2,1.4-3.2c0.5-1.1,1.4-2.7,2.7-4.6c0.3-0.5,0.6-1,0.6-1.3
			c0.1-0.3,0.1-0.5,0.1-0.7c0-0.6-0.3-0.9-0.8-0.9c-0.4,0-1.1,0.2-2,0.7s-1.9,1.4-3.2,2.6c-1.2,1.2-2.7,2.9-4.4,5s-3.7,5.4-5.9,9.6
			c-0.3,0.6-0.7,1-1.1,1s-1,0.1-1.7,0.1c-0.5,0-1,0.1-1.4,0.1C311.1,95,310.8,95.1,310.5,95.4z"/>
		<path class="st43" d="M337.2,118.3c-4.7,0-7-1.9-7-5.8c0-1.8,0.6-3.4,1.9-4.9c1.3-1.4,2.8-2.7,4.6-3.7c2.5-1.5,4.8-2.7,7.2-3.5
			s4.5-1.7,6.6-2.3c2.1-0.7,4.1-1.4,5.9-2.2c0.9-2.6,1.5-5.3,1.8-8.2c0.1-1.5,0.2-2.8,0.2-3.8c0-1.1-0.1-1.9-0.2-2.2
			c-0.5,1-1.3,2.3-2.1,3.8s-1.9,2.9-3,4.3s-2.3,2.6-3.6,3.5c-1.3,0.9-2.6,1.4-4,1.4c-0.5,0-1-0.1-1.4-0.2c-1.4-0.6-2.4-1.4-3-2.5
			s-0.9-2.3-0.9-3.7c0-2.2,0.6-4.6,1.9-7.2s2.8-4.9,4.6-7c1.4-1.7,3.1-3.1,5-4.1s3.9-1.5,5.8-1.5c2.3,0,4.4,0.8,6.3,2.3
			c0.7,0.6,1.1,1.2,1.1,1.9c0,0.7-0.3,1.1-0.9,1.1c-0.5,0-0.8-0.3-1-1c-0.7-1.8-1.8-2.7-3.3-2.7c-1.2,0-2.6,0.5-4.2,1.6
			s-3,2.4-4.4,3.9c-1.2,1.3-2.3,2.9-3.4,4.6s-2,3.4-2.7,5.1s-1.1,3.1-1.1,4.4c0,0.8,0.2,1.5,0.6,2.1s1,0.9,1.8,0.9
			c1.1,0,2.3-0.5,3.6-1.6c1.3-1.1,2.5-2.4,3.6-4c1.2-1.6,2.2-3.2,3-4.8c0.9-1.6,1.5-3,1.8-4.1s0.8-1.8,1.4-2.1
			c0.6-0.3,1.2-0.4,1.8-0.4c0.6,0,1.1-0.1,1.5-0.4c0.2,1.1,0.3,2.2,0.4,3.3c0.1,1.1,0.1,2.2,0.1,3.4c0,3.8-0.5,7.6-1.5,11.4
			c0.9-0.7,1.8-1.4,2.8-2.2c1-0.8,1.8-1.7,2.5-2.6c1.2-1.7,2.1-3.2,2.8-4.6c0.6-1.4,1.1-2.5,1.4-3.3c0.3-0.5,0.6-0.7,1-0.7
			c0.3,0,0.4,0.1,0.4,0.4c0,0.2-0.1,0.5-0.3,0.9c-1.2,2.6-2.4,4.8-3.4,6.7c-1,1.8-2.2,3.4-3.4,4.6c-1.2,1.3-2.8,2.3-4.6,3.2
			c-0.8,2.4-2,4.8-3.5,7.4s-3.4,5.1-5.5,7.4s-4.4,4.2-6.9,5.6C342.5,117.6,339.9,118.3,337.2,118.3z M335.5,116.8
			c1.1,0,2.2-0.2,3.4-0.7c1.2-0.5,2.3-1,3.4-1.7c1.1-0.6,1.9-1.2,2.5-1.6c1.1-0.9,2.3-2,3.5-3.3s2.2-2.6,3.1-3.8
			c0.8-1.2,1.6-2.4,2.4-3.7c0.8-1.3,1.4-2.6,2-3.9c-0.4,0.1-0.9,0.3-1.4,0.5c-0.6,0.2-1,0.3-1.2,0.4c-1.6,0.5-3.4,1.2-5.3,1.9
			c-1.9,0.7-3.9,1.5-5.8,2.4s-3.7,1.8-5.2,2.8c-1.4,0.9-2.5,2.2-3.4,3.7s-1.4,2.9-1.4,4c0,0.8,0.3,1.5,0.8,2.1
			C333.3,116.5,334.2,116.8,335.5,116.8z"/>
		<path class="st43" d="M414.7,102.4c-1.8,0-3.7-0.2-5.6-0.6s-3.8-1-5.6-1.8c-3-1.3-5.5-3.1-7.4-5.2s-3.2-4.6-4.1-7.3
			c-0.8-2.7-1.3-5.5-1.3-8.5c0-3.1,0.4-6.2,1.1-9.3c0.8-3.1,1.8-6.1,3.2-8.9c1.4-2.8,2.9-5.3,4.6-7.6c-0.3-1.3-0.6-2.8-0.8-4.4
			c-0.2-1.7-0.3-3.4-0.3-5.1c0-2.6,0.3-5.1,0.9-7.4c0.2-0.7,0.5-1,1-1c0.3,0,0.5,0.2,0.5,0.7c0,0.3,0,0.5-0.1,0.7
			c-0.1,0.7-0.2,1.5-0.3,2.3c-0.1,0.8-0.1,1.6-0.1,2.4c0,1.7,0.1,3.3,0.3,4.9c0.2,1.6,0.4,3.1,0.7,4.5c3.6-4.7,7.7-8.1,12.4-10.4
			c4.6-2.3,9.5-3.4,14.6-3.4c1.3,0,2.6,0.1,3.8,0.2c3.9,0.4,7.2,1.4,9.7,2.9s4.4,3.3,5.6,5.5s1.8,4.4,1.8,6.9c0,2.4-0.5,4.7-1.6,7
			s-2.7,4.4-4.7,6.3c-2.1,1.9-4.6,3.4-7.6,4.6s-6.3,1.7-10.1,1.7c-0.8,0-1.7,0-2.5-0.1c-0.8,0-1.7-0.1-2.7-0.3
			c-3.9-0.6-7.4-1.8-10.6-3.8s-5.8-4.9-7.7-8.8c-0.4,0.5-0.9,1.5-1.6,3s-1.4,3.3-2.1,5.4s-1.3,4.4-1.8,6.9s-0.7,5-0.7,7.5
			c0,2.4,0.3,4.7,1,7c0.6,2.2,1.7,4.2,3.3,5.9c1.6,1.7,3.7,3,6.4,3.8c1.3,0.4,2.7,0.7,4.1,0.9c1.4,0.2,2.9,0.3,4.3,0.3
			c2.9,0,5.7-0.4,8.5-1.1s5.4-1.8,7.8-3.2c3.2-1.9,5.7-4,7.4-6.5c1.7-2.5,3.3-5.3,4.8-8.4c0.2-0.5,0.5-0.7,0.8-0.7
			c0.2,0,0.4,0.2,0.4,0.5c0,0.2-0.1,0.5-0.3,0.9c-1,2.2-2.1,4.1-3.1,5.9s-2.2,3.5-3.6,5s-3.1,3-5.2,4.5c-2.4,1.7-5.1,3-8.1,4.1
			C421.1,101.8,418,102.4,414.7,102.4z M425,70.2c3.4,0,6.4-0.5,9-1.5s4.8-2.3,6.6-4c1.8-1.6,3.1-3.5,4.1-5.5c0.9-2,1.4-4.1,1.4-6.1
			s-0.5-3.9-1.4-5.8c-0.9-1.8-2.3-3.4-4.2-4.7c-1.9-1.3-4.3-2.1-7.3-2.5c-1.1-0.1-2.2-0.2-3.2-0.2c-3.3,0-6.6,0.7-9.8,2.1
			c-3.2,1.4-6.3,3.4-9.1,5.9c-2.9,2.5-5.4,5.5-7.6,8.9c1.7,4.3,4.1,7.4,7.3,9.4c3.1,2,6.7,3.3,10.7,3.8
			C422.6,70.2,423.8,70.2,425,70.2z"/>
		<path class="st43" d="M448.4,95.1c-1.8,0-3.5-0.6-4.9-1.8c-1.5-1.2-2.2-3-2.2-5.4c0-2.2,0.5-4.6,1.6-7.1s2.5-4.8,4.1-6.7
			c1.4-1.7,3-3,4.8-4.1s3.4-1.6,5-1.6c1.1,0,2,0.3,2.8,0.9s1.3,1.5,1.3,2.7s-0.5,2.6-1.4,4.1s-2.3,2.9-4,4.1
			c-0.7,0.5-1.7,1.1-2.8,1.5c-1.1,0.5-2.3,0.9-3.4,1.2c-1.1,0.3-2.1,0.5-2.8,0.5c-0.2,0.6-0.5,1.4-0.7,2.4s-0.3,2-0.3,3
			c0,1.2,0.2,2.3,0.7,3.3s1.4,1.5,2.7,1.5c1.6,0,3.1-0.5,4.4-1.4s2.5-2.1,3.5-3.5s1.9-2.8,2.6-4.2c0.7-1.4,1.3-2.6,1.7-3.6
			c0.3-0.7,0.7-1,1.2-1c0.2,0,0.4,0.1,0.4,0.4c0,0.2-0.1,0.4-0.2,0.7c-0.7,1.5-1.4,3-2.2,4.7c-0.8,1.6-1.7,3.2-2.8,4.6
			c-1.1,1.5-2.4,2.6-3.9,3.5C452.2,94.6,450.4,95.1,448.4,95.1z M447,82.1c0.7,0,1.8-0.3,3.5-0.8c1.6-0.5,3.1-1.3,4.4-2.5
			c1.3-1.1,2.3-2.4,3-3.7c0.7-1.4,1-2.5,1-3.4c0-1.1-0.4-1.6-1.2-1.6c-0.6,0-1.4,0.4-2.4,1.2s-2.3,2.1-3.8,4
			c-0.9,1.2-1.8,2.5-2.7,3.8C448,80.5,447.4,81.5,447,82.1z"/>
		<path class="st43" d="M451.5,118.3c-2.6,0-4.4-0.5-5.5-1.5s-1.6-2.2-1.6-3.6c0-0.7,0.1-1.4,0.3-1.9c0.2-0.5,0.5-1.2,0.9-2.1
			c0.7-1.4,1.6-2.7,2.9-3.7c1.2-1,2.6-1.9,4-2.5c2.6-1.2,5.5-2.1,8.7-2.9c3.3-0.7,6.4-1.5,9.4-2.4c0.9-1.6,1.8-3.5,2.6-5.6
			c0.8-2.1,1.5-4.1,2.1-6.1s1.2-3.6,1.5-4.9c-0.6,1.1-1.3,2.4-2.2,3.9c-0.9,1.5-1.9,3.1-3.1,4.5c-1.1,1.5-2.3,2.7-3.7,3.7
			c-1.3,1-2.7,1.5-4.1,1.5c-0.5,0-1.2-0.1-2-0.4c-0.8-0.2-1.4-0.7-2-1.4c-0.6-0.7-0.8-1.7-0.8-3s0.3-2.5,0.9-3.7s1.2-2.4,1.7-3.5
			c-0.1,0-0.3,0-0.5-0.1s-0.3-0.2-0.3-0.4c0-0.2,0-0.4,0.1-0.6c0.2-0.4,0.4-0.8,0.7-1.3s0.5-0.9,0.7-1.4c0.7-1.5,1.5-3,2.2-4.4
			s1.4-2.6,1.9-3.7s1.5-1.6,2.8-1.6h4.6c-0.3,0.3-0.8,0.6-1.3,1s-1,0.9-1.4,1.7c-1.3,2.3-2.5,4.4-3.5,6.5s-2,4.3-3.2,6.7
			c-0.5,1.1-0.9,2.2-1.2,3.1c-0.2,0.9-0.4,1.7-0.4,2.4c0,1.6,0.5,2.4,1.6,2.4c1.2,0,2.6-1,4.3-2.9c1.4-1.6,2.8-3.6,4.2-5.8
			c1.4-2.2,2.8-4.5,4.1-6.9c1.3-2.4,2.4-4.6,3.4-6.6c0.5-1.1,1.5-1.6,2.9-1.6h4.1c-1.4,1-2.5,2.3-3.3,3.8c-0.8,1.6-1.6,3.6-2.5,6
			c-1,2.7-2,5.5-2.9,8.4s-1.9,5.8-3.1,8.7c1.6-0.5,3.5-1.4,5.5-2.5s3.8-2.8,5.2-4.9c1.1-1.7,2.1-3.3,2.9-4.8s1.4-2.7,1.7-3.4
			c0.2-0.5,0.5-0.7,0.8-0.7s0.5,0.2,0.5,0.7c0,0.2-0.1,0.5-0.2,0.8c-1.3,2.6-2.4,4.7-3.4,6.5c-1,1.7-2.1,3.2-3.3,4.5
			c-1.2,1.3-2.7,2.4-4.4,3.3c-1.7,1-3.9,1.9-6.6,2.9c-1.2,2.1-2.5,4.3-4,6.6c-1.5,2.3-3.2,4.4-5.1,6.4s-4,3.6-6.3,4.9
			C456.7,117.7,454.2,118.3,451.5,118.3z M449.7,116.8c1.6,0,3.3-0.5,5-1.5s3.4-2.2,5-3.7s3.1-3,4.5-4.6c1.4-1.5,2.4-2.9,3.3-4.1
			c0.2-0.3,0.5-0.8,0.8-1.3s0.6-1.1,0.9-1.5c-2.4,0.6-5.1,1.3-7.9,2.1c-2.9,0.8-5.4,1.6-7.5,2.5c-2.4,1-4.2,2.4-5.6,4.2
			c-1.4,1.8-2,3.4-2,4.9c0,0.9,0.3,1.6,0.8,2.2C447.6,116.6,448.5,116.8,449.7,116.8z"/>
		<path class="st43" d="M494.7,95c-2.1,0-3.5-0.6-4.2-1.7s-1.1-2.4-1.1-3.9c0-1.6,0.2-3.2,0.7-4.9c0.4-1.7,0.8-3.1,1.2-4.2
			c0.8-2.8,1.8-5.7,3-8.8c1.2-3.1,2.5-6.2,4-9.2c1.4-3,2.9-5.7,4.3-8.1c1.1-1.9,2.3-3.4,3.7-4.3c1.3-1,2.4-1.4,3.4-1.4
			c0.8,0,1.4,0.3,1.9,0.8c0.5,0.6,0.7,1.4,0.7,2.5c0,0.8-0.1,1.7-0.4,2.8c-0.3,1.1-0.7,2.3-1.4,3.7c-1.7,3.8-3.8,7.7-6.2,11.5
			c-2.4,3.8-5.4,7.4-9,10.8c-0.2,0.6-0.5,1.4-0.8,2.2c-0.3,0.9-0.6,1.7-0.8,2.6c-0.3,1.3-0.4,2.5-0.4,3.4c0,1.5,0.3,2.7,0.9,3.4
			c0.6,0.8,1.4,1.1,2.2,1.1c0.8,0,1.6-0.3,2.5-0.8c0.9-0.6,1.7-1.4,2.5-2.5c1.2-1.7,2.2-3.5,3.2-5.3s1.7-3.2,2.2-4.2
			c0.3-0.5,0.6-0.8,1-0.8c0.2,0,0.4,0.1,0.4,0.4c0,0.2-0.1,0.5-0.2,0.8c-0.4,1-1,2.2-1.7,3.8c-0.7,1.5-1.6,3.1-2.7,4.6
			s-2.3,2.9-3.8,3.9C498.2,94.5,496.5,95,494.7,95z M495.8,78.2c1.8-1.8,3.5-3.9,5.2-6.3s3.2-4.9,4.7-7.4c1.4-2.6,2.7-5,3.7-7.3
			c0.3-0.7,0.6-1.5,0.8-2.4c0.2-0.9,0.3-1.6,0.3-2.2c0-0.7-0.2-1-0.5-1c-0.2,0-0.5,0.2-0.9,0.6c-0.4,0.4-0.9,1-1.5,1.9
			c-0.9,1.2-2,2.9-3.1,5s-2.2,4.4-3.4,6.8c-1.1,2.4-2.2,4.7-3.1,7C497,74.9,496.3,76.7,495.8,78.2z"/>
		<path class="st43" d="M510.2,94.8c-1.9,0-3.2-0.6-4.1-1.9s-1.3-2.8-1.3-4.6c0-2.2,0.5-4.5,1.5-6.9c1-2.3,2.2-4.3,3.8-6.2
			c1.5-1.9,3.2-3.4,4.9-4.5c1.8-1.2,3.5-1.7,5.2-1.7c1.9,0,3.2,0.6,4.1,1.8c0.9,1.2,1.3,2.8,1.3,4.6c0,2.3-0.5,4.6-1.5,6.9
			c-0.6,1.3-1.4,2.8-2.5,4.4s-2.3,3.1-3.7,4.4c0.3,0.5,0.7,1,1.3,1.4c0.5,0.4,1.3,0.6,2.2,0.6c1.2,0,2.3-0.5,3.4-1.5
			c1.1-1,2-2.2,2.9-3.6s1.7-2.8,2.4-4.2c0.7-1.4,1.3-2.6,1.7-3.5c0.1-0.3,0.4-0.4,0.7-0.4c0.2,0,0.3,0.1,0.4,0.3
			c0.1,0.2,0.1,0.4-0.1,0.8c-0.3,0.7-0.8,1.8-1.5,3.3s-1.5,3-2.5,4.5s-2.1,2.9-3.4,3.9c-1.3,1.1-2.7,1.6-4.3,1.6
			c-1.1,0-2-0.2-2.8-0.6s-1.4-0.8-1.9-1.4c-1,0.8-2.1,1.4-3.1,1.8S511.3,94.8,510.2,94.8z M511.3,93.2c1.3,0,2.8-0.6,4.3-1.9
			c-0.4-0.6-0.7-1.2-0.9-1.8c-0.2-0.6-0.3-1.2-0.3-1.8c0-0.9,0.2-1.6,0.6-2.3c0.4-0.6,1.1-1,2-1c0.6,0,1.2,0.2,1.6,0.7
			c0.4,0.5,0.6,1,0.6,1.6c0,0.1,0,0.3,0,0.4s-0.1,0.3-0.1,0.4c0.8-1.1,1.6-2.5,2.4-4c1.6-3.5,2.4-6.4,2.4-8.6c0-1.1-0.2-2-0.7-2.7
			c-0.4-0.6-1.1-1-2-1c-1,0-2.2,0.4-3.4,1.3s-2.4,2.1-3.5,3.5c-1.1,1.5-2.1,3.1-2.9,4.9c-0.8,1.7-1.4,3.3-1.9,4.8s-0.7,2.9-0.7,4
			c0,1,0.2,1.8,0.6,2.4C509.9,92.9,510.5,93.2,511.3,93.2z"/>
		<path class="st43" d="M524.4,95.4c1.8-3.6,3.5-7.1,5.1-10.7c1.6-3.5,3.3-6.9,5.1-10.1c1-1.8,1.8-3,2.5-3.7s1.6-1.1,2.7-1.1
			c0.4,0,0.8,0.1,1.3,0.2c0.4,0.1,0.9,0.2,1.3,0.2c0.3,0,0.5,0,0.7-0.1c-0.7,0.4-1.6,1.4-2.7,2.9c-1.1,1.5-2.2,3.3-3.3,5.3
			s-2.1,3.9-3,5.7c0.9-1.1,1.9-2.3,2.9-3.4s2.1-2.2,3.4-3.2c1.2-1,2.6-2.1,4.2-3.2c1.6-1.1,3.3-2,4.8-2.8s2.8-1.1,3.8-1.1
			c0.3,0,0.6,0,0.7,0.1c-1.1,1.9-2,3.7-2.8,5.2s-1.6,3.2-2.5,4.9c-0.8,1.7-1.6,3.4-2.2,5c-0.7,1.6-1.1,2.9-1.3,4
			c-0.1,0.6-0.2,1.2-0.2,1.8c0,0.8,0.1,1.3,0.4,1.5c0.3,0.2,0.6,0.4,1,0.4c0.9,0,1.9-0.5,2.9-1.5s2-2.2,3-3.7s1.8-2.9,2.6-4.3
			s1.3-2.5,1.7-3.2c0.2-0.4,0.3-0.6,0.4-0.7s0.2-0.1,0.4-0.1c0.3,0,0.4,0.2,0.4,0.6c0,0.2-0.1,0.5-0.2,0.8c-0.6,1.1-1.3,2.5-2.1,4.1
			s-1.7,3.1-2.8,4.6c-1,1.5-2.2,2.8-3.4,3.8s-2.6,1.5-4,1.5c-1,0-2-0.3-3.1-1s-1.6-2-1.6-3.8c0-0.5,0-1.1,0.1-1.7s0.3-1.3,0.5-2
			c0.4-1,0.9-2,1.4-3.2c0.5-1.1,1.4-2.7,2.7-4.6c0.3-0.5,0.6-1,0.6-1.3c0.1-0.3,0.1-0.5,0.1-0.7c0-0.6-0.3-0.9-0.8-0.9
			c-0.4,0-1.1,0.2-2,0.7s-1.9,1.4-3.2,2.6c-1.2,1.2-2.7,2.9-4.4,5s-3.7,5.4-5.9,9.6c-0.3,0.6-0.7,1-1.1,1c-0.4,0-1,0.1-1.7,0.1
			c-0.5,0-1,0.1-1.4,0.1C525,95,524.7,95.1,524.4,95.4z"/>
	</g>
	<g>
		<path class="st47" d="M183.3,106.4h4.4v6.2c0,2.4-1.7,3.7-3.8,3.7c-2.2,0-3.8-1.6-3.8-3.7h0.4c0,1.9,1.5,3.3,3.3,3.3
			s3.3-1.1,3.3-3.3v-5.8h-4v-0.4C183.1,106.4,183.3,106.4,183.3,106.4z"/>
		<path class="st47" d="M193.1,109.2c1.9,0,3.5,1.4,3.5,3.6c0,2.3-1.6,3.5-3.5,3.5s-3.5-1.3-3.5-3.5
			C189.6,110.5,191.2,109.2,193.1,109.2z M193.1,109.6c-1.6,0-3.1,1.2-3.1,3.2s1.4,3.1,3.1,3.1c1.7,0,3.1-1.1,3.1-3.1
			C196.2,110.8,194.8,109.6,193.1,109.6z"/>
		<path class="st47" d="M204.6,116.2h-0.4v-1.6c-0.6,1.2-1.7,1.7-2.7,1.7c-1.9,0-3-1.1-3-3v-4.1h0.4v4.1c0,1.7,1,2.6,2.6,2.6
			c1.5,0,2.7-1.2,2.7-2.7v-3.9h0.4V116.2z"/>
		<path class="st47" d="M207.4,109.3v0.8v1c0.3-1.1,1.3-1.8,2.5-1.8c0.4,0,0.9,0.1,1.3,0.3L211,110c-0.4-0.2-0.8-0.3-1.2-0.3
			c-1.4,0-2.4,1.2-2.4,2.5v4.1H207v-6.9L207.4,109.3L207.4,109.3z"/>
		<path class="st47" d="M212.4,109.3h0.4v1.6c0.6-1.2,1.7-1.7,2.7-1.7c1.9,0,3,1.1,3,3v4.1h-0.4v-4.1c0-1.7-1-2.6-2.6-2.6
			c-1.5,0-2.7,1.2-2.7,2.7v3.9h-0.4V109.3z"/>
		<path class="st47" d="M226.8,114.9c-0.7,0.9-1.9,1.4-3,1.4c-1.8,0-3.4-1.3-3.4-3.5c0-2.1,1.5-3.6,3.4-3.6s3.7,1.1,3.4,3.8h-6.5
			c0.2,2,1.5,2.9,3,2.9c1,0,2.1-0.4,2.7-1.2L226.8,114.9z M226.9,112.6c0.1-1.9-1.2-3-3.1-3c-1.6,0-2.9,1.1-3,3H226.9z"/>
		<path class="st47" d="M234.5,109.3l-4.4,10.3h-0.5l1.5-3.5l-2.8-6.8h0.5l2.6,6.4l2.7-6.4H234.5z"/>
		<path class="st47" d="M240.3,107c0,0.5-0.7,0.5-0.7,0C239.5,106.5,240.3,106.5,240.3,107z M239.7,109.3v6.9h0.4v-6.9H239.7z"/>
		<path class="st47" d="M242.5,109.3h0.4v1.6c0.6-1.2,1.7-1.7,2.7-1.7c1.9,0,3,1.1,3,3v4.1h-0.4v-4.1c0-1.7-1-2.6-2.6-2.6
			c-1.5,0-2.7,1.2-2.7,2.7v3.9h-0.4V109.3z"/>
		<path class="st47" d="M251.9,107.2v2.1h2.5v0.4h-2.5v4.5c0,1,0.2,1.8,1.4,1.8c0.4,0,0.9-0.2,1.2-0.4l0.2,0.4
			c-0.4,0.2-1,0.4-1.4,0.4c-1.5,0-1.8-0.8-1.8-2.2v-4.5H250v-0.4h1.5v-2.1L251.9,107.2z"/>
		<path class="st47" d="M258.9,109.2c1.9,0,3.5,1.4,3.5,3.6c0,2.3-1.6,3.5-3.5,3.5s-3.5-1.3-3.5-3.5
			C255.3,110.5,257,109.2,258.9,109.2z M258.9,109.6c-1.6,0-3.1,1.2-3.1,3.2s1.4,3.1,3.1,3.1s3.1-1.1,3.1-3.1
			C261.9,110.8,260.5,109.6,258.9,109.6z"/>
		<path class="st47" d="M276.2,114.9c-1,1-2.3,1.5-3.5,1.5c-3.2,0-5-2.3-5-4.9s1.7-5.1,5-5.1c1.3,0,2.6,0.5,3.5,1.5l-0.3,0.3
			c-0.9-0.9-2.1-1.3-3.2-1.3c-3,0-4.6,2.1-4.6,4.6s1.6,4.5,4.6,4.5c1.2,0,2.3-0.4,3.2-1.3L276.2,114.9z"/>
		<path class="st47" d="M283.9,114.9c-0.7,0.9-1.9,1.4-3,1.4c-1.8,0-3.4-1.3-3.4-3.5c0-2.1,1.5-3.6,3.4-3.6s3.7,1.1,3.4,3.8h-6.5
			c0.2,2,1.5,2.9,3,2.9c1,0,2.1-0.4,2.7-1.2L283.9,114.9z M284,112.6c0.1-1.9-1.2-3-3.1-3c-1.6,0-2.9,1.1-3,3H284z"/>
		<path class="st47" d="M291.6,109.3l-4.4,10.3h-0.5l1.5-3.5l-2.8-6.8h0.5l2.6,6.4l2.7-6.4H291.6z"/>
		<path class="st47" d="M293.9,106.4v9.8h-0.4v-9.8H293.9z"/>
		<path class="st47" d="M299.4,109.2c1.9,0,3.5,1.4,3.5,3.6c0,2.3-1.6,3.5-3.5,3.5s-3.5-1.3-3.5-3.5
			C295.9,110.5,297.5,109.2,299.4,109.2z M299.4,109.6c-1.6,0-3.1,1.2-3.1,3.2s1.4,3.1,3.1,3.1s3.1-1.1,3.1-3.1
			C302.5,110.8,301.1,109.6,299.4,109.6z"/>
		<path class="st47" d="M304.8,109.3h0.4v1.6c0.6-1.2,1.7-1.7,2.7-1.7c1.9,0,3,1.1,3,3v4.1h-0.4v-4.1c0-1.7-1-2.6-2.6-2.6
			c-1.5,0-2.7,1.2-2.7,2.7v3.9h-0.4V109.3z"/>
		<path class="st47" d="M313.4,106.4v3.5H313v-3.5H313.4z"/>
		<path class="st47" d="M320.4,110.5c-0.6-0.6-1.4-0.8-2.3-0.8c-1.2,0-2.3,0.4-2.3,1.4c0,1.1,1.4,1.2,2.3,1.4
			c1.2,0.2,2.8,0.4,2.8,1.9s-1.5,1.9-2.8,1.9c-1.2,0-2.5-0.5-3-1.4l0.3-0.2c0.6,0.9,1.7,1.3,2.7,1.3c0.9,0,2.4-0.3,2.4-1.5
			s-1.3-1.3-2.5-1.5c-1.3-0.3-2.6-0.5-2.6-1.8s1.3-1.8,2.7-1.8c1,0,1.9,0.3,2.6,0.9L320.4,110.5z"/>
		<path class="st47" d="M370.7,106.4h7.8v0.4h-3.7v9.4h-0.4v-9.4h-3.7L370.7,106.4L370.7,106.4z"/>
		<path class="st47" d="M380.5,107c0,0.5-0.7,0.5-0.7,0C379.7,106.5,380.5,106.5,380.5,107z M379.9,109.3v6.9h0.4v-6.9H379.9z"/>
		<path class="st47" d="M382.7,109.3h0.4v1.3c0.4-1,1.4-1.4,2.4-1.4c1.1,0,2.3,0.5,2.7,1.8c0.4-1.3,1.5-1.8,2.6-1.8
			c1.6,0,2.9,1.2,2.9,2.8v4.2h-0.4V112c0-1.4-1-2.4-2.4-2.4s-2.4,1-2.4,2.4v4.2h-0.4V112c0-1.4-1-2.4-2.5-2.4c-1.4,0-2.3,1-2.3,2.4
			v4.2h-0.4v-6.9C382.9,109.3,382.7,109.3,382.7,109.3z"/>
		<path class="st47" d="M401.9,114.9c-0.7,0.9-1.9,1.4-3,1.4c-1.8,0-3.4-1.3-3.4-3.5c0-2.1,1.5-3.6,3.4-3.6s3.7,1.1,3.4,3.8h-6.5
			c0.2,2,1.5,2.9,3,2.9c1,0,2.1-0.4,2.7-1.2L401.9,114.9z M402,112.6c0.1-1.9-1.2-3-3.1-3c-1.6,0-2.9,1.1-3,3H402z"/>
		<path class="st47" d="M404.7,106.4v9.8h-0.4v-9.8H404.7z"/>
		<path class="st47" d="M413.2,114.9c-0.7,0.9-1.9,1.4-3,1.4c-1.8,0-3.4-1.3-3.4-3.5c0-2.1,1.5-3.6,3.4-3.6s3.7,1.1,3.4,3.8h-6.5
			c0.2,2,1.5,2.9,3,2.9c1,0,2.1-0.4,2.7-1.2L413.2,114.9z M413.2,112.6c0.1-1.9-1.2-3-3.1-3c-1.6,0-2.9,1.1-3,3H413.2z"/>
		<path class="st47" d="M420.1,110.5c-0.6-0.6-1.4-0.8-2.3-0.8c-1.2,0-2.3,0.4-2.3,1.4c0,1.1,1.4,1.2,2.3,1.4
			c1.2,0.2,2.8,0.4,2.8,1.9s-1.5,1.9-2.8,1.9c-1.2,0-2.5-0.5-3-1.4l0.3-0.2c0.6,0.9,1.7,1.3,2.7,1.3c0.9,0,2.4-0.3,2.4-1.5
			s-1.3-1.3-2.5-1.5c-1.3-0.3-2.6-0.5-2.6-1.8s1.3-1.8,2.7-1.8c1,0,1.9,0.3,2.6,0.9L420.1,110.5z"/>
		<path class="st47" d="M427.1,110.5c-0.6-0.6-1.4-0.8-2.3-0.8c-1.2,0-2.3,0.4-2.3,1.4c0,1.1,1.4,1.2,2.3,1.4
			c1.2,0.2,2.8,0.4,2.8,1.9s-1.5,1.9-2.8,1.9c-1.2,0-2.5-0.5-3-1.4l0.3-0.2c0.6,0.9,1.7,1.3,2.7,1.3c0.9,0,2.4-0.3,2.4-1.5
			s-1.3-1.3-2.5-1.5c-1.3-0.3-2.6-0.5-2.6-1.8s1.3-1.8,2.7-1.8c1,0,1.9,0.3,2.6,0.9L427.1,110.5z"/>
		<path class="st47" d="M479.1,106.4h3.9c1.6,0,3.2,0.8,3.2,2.6c0,1.1-0.7,1.9-1.7,2.2c1.4,0.4,2.1,1.3,2.1,2.5c0,2-1.9,2.5-3.5,2.5
			h-3.9v-9.8C479.2,106.4,479.1,106.4,479.1,106.4z M479.6,111h3.5c1.2,0,2.6-0.4,2.6-2c0-1.7-1.5-2.2-2.7-2.2h-3.4V111z
			 M479.6,115.8h3.4c1.3,0,3.1-0.3,3.1-2.1c0-1.7-1.5-2.3-3-2.3h-3.5V115.8z"/>
		<path class="st47" d="M494.5,114.9c-0.7,0.9-1.9,1.4-3,1.4c-1.8,0-3.4-1.3-3.4-3.5c0-2.1,1.5-3.6,3.4-3.6s3.7,1.1,3.4,3.8h-6.5
			c0.2,2,1.5,2.9,3,2.9c1,0,2.1-0.4,2.7-1.2L494.5,114.9z M494.6,112.6c0.1-1.9-1.2-3-3.1-3c-1.6,0-2.9,1.1-3,3H494.6z"/>
		<path class="st47" d="M502.8,116.2v-0.9l0.1-1c-0.5,1.3-1.9,2-3.1,2c-1.9,0-3.5-1.3-3.5-3.5s1.6-3.5,3.5-3.5c1.3,0,2.7,0.7,3.1,2
			l-0.1-1.1v-0.8h0.4v6.9L502.8,116.2L502.8,116.2z M496.7,112.8c0,2,1.4,3.1,3.1,3.1c2.1,0,3-1.5,3-3.2c0-1.6-1-3.1-3.1-3.1
			C498.1,109.7,496.7,110.8,496.7,112.8z"/>
		<path class="st47" d="M511.6,116.2h-0.4v-1.6c-0.6,1.2-1.7,1.7-2.7,1.7c-1.9,0-3-1.1-3-3v-4.1h0.4v4.1c0,1.7,1,2.6,2.6,2.6
			c1.5,0,2.7-1.2,2.7-2.7v-3.9h0.4V116.2z"/>
		<path class="st47" d="M515.3,107.2v2.1h2.5v0.4h-2.5v4.5c0,1,0.2,1.8,1.4,1.8c0.3,0,0.9-0.2,1.2-0.4l0.2,0.4
			c-0.4,0.2-1,0.4-1.4,0.4c-1.5,0-1.8-0.8-1.8-2.2v-4.5h-1.5v-0.4h1.5v-2.1L515.3,107.2z"/>
		<path class="st47" d="M524.9,109.3l-4.4,10.3H520l1.5-3.5l-2.8-6.8h0.5l2.6,6.4l2.7-6.4H524.9z"/>
		<path class="st47" d="M526.8,115.9c0,0.5-0.8,0.5-0.8,0C526.1,115.4,526.8,115.4,526.8,115.9z"/>
	</g>
	<g>
		<rect x="528.9" y="112.5" class="st47" width="31.2" height="0.5"/>
		<rect x="141.1" y="112.5" class="st47" width="31.2" height="0.5"/>
	</g>
</g>
</svg>
